<svg fill="currentColor" xmlns="http://www.w3.org/2000/svg" width="24" height="24" viewBox="0 0 256 256" version="1.1">
	<path d="M 104.698 46.635 C 104.314 47.019, 104 51.983, 104 57.667 C 104 67.941, 103.986 68, 101.571 68 C 98.570 68, 96.012 70.426, 95.962 73.321 C 95.938 74.693, 94.511 76.476, 92.108 78.137 C 89.781 79.745, 87.261 82.842, 85.650 86.075 C 83.835 89.716, 82.067 91.773, 80.004 92.640 C 77.589 93.656, 77 94.507, 77 96.983 C 77 98.798, 77.616 100.299, 78.500 100.638 C 79.809 101.141, 80 108.444, 80 157.985 C 80 207.227, 79.801 214.920, 78.500 216 C 76.325 217.805, 76.592 222.711, 78.934 223.965 C 80.163 224.622, 93.782 225, 116.279 225 C 149.315 225, 151.801 224.877, 153.345 223.171 C 155.539 220.747, 155.433 218.702, 153 216.500 C 151.045 214.731, 151 213.420, 151 158.500 C 151 103.580, 151.045 102.269, 153 100.500 C 154.100 99.505, 155 97.930, 155 97 C 155 94.957, 151.929 92, 149.807 92 C 148.907 92, 147.556 90.127, 146.544 87.477 C 145.430 84.559, 143.074 81.452, 139.909 78.727 C 137.003 76.224, 135.001 73.664, 135 72.450 C 135 69.623, 133.115 68, 129.834 68 L 127.068 68 126.784 57.250 L 126.500 46.500 115.948 46.218 C 110.145 46.063, 105.083 46.251, 104.698 46.635 M 115.250 49.794 L 108 50.088 108 59.044 L 108 68 116 68 L 124 68 124 59.059 C 124 54.141, 123.662 49.979, 123.250 49.809 C 122.838 49.639, 119.237 49.632, 115.250 49.794 M 112 54 C 110.900 55.100, 110 56.830, 110 57.845 C 110 61.907, 116.906 64.694, 119.800 61.800 C 121.593 60.007, 121.248 55.534, 119.171 53.655 C 116.741 51.456, 114.433 51.567, 112 54 M 114.190 57.750 C 114.376 58.712, 115.190 59.500, 116 59.500 C 116.810 59.500, 117.624 58.712, 117.810 57.750 C 118.046 56.522, 117.506 56, 116 56 C 114.494 56, 113.954 56.522, 114.190 57.750 M 100.459 72.067 C 100.096 72.653, 100.099 73.433, 100.466 73.799 C 101.287 74.620, 130.781 74.552, 131.606 73.727 C 131.933 73.400, 131.904 72.653, 131.541 72.067 C 130.641 70.611, 101.359 70.611, 100.459 72.067 M 94.735 80.534 C 91.682 82.608, 87 89.223, 87 91.460 C 87 91.757, 99.825 92, 115.500 92 C 138.781 92, 144 91.752, 144 90.648 C 144 88.379, 139.648 82.679, 136.078 80.274 C 132.895 78.129, 131.735 78, 115.584 78 C 98.909 78, 98.367 78.066, 94.735 80.534 M 80.679 95.654 C 80.306 96.028, 80 96.708, 80 97.167 C 80 97.625, 96.012 98, 115.583 98 C 143.605 98, 151.078 97.734, 150.750 96.750 C 150.430 95.789, 142.358 95.439, 115.846 95.237 C 96.878 95.093, 81.053 95.280, 80.679 95.654 M 84 158.500 L 84 215 116 215 L 148 215 148 158.500 L 148 102 116 102 L 84 102 84 158.500 M 81.250 218.719 C 76.283 220.498, 83.825 221, 115.500 221 C 136.790 221, 151 220.627, 151 220.067 C 151 219.554, 150.213 218.905, 149.250 218.624 C 147.115 218.001, 83.005 218.090, 81.250 218.719" stroke="none" fill="currentColor" fill-rule="evenodd"/>
</svg>