<svg fill="currentColor" xmlns="http://www.w3.org/2000/svg" width="24" height="24" viewBox="0 0 400 400" version="1.1">
	<path d="M 164.177 73.648 C 163.661 74.570, 163.482 82.050, 163.771 90.648 L 164.287 106 160.278 106 C 154.478 106, 151 109.016, 151 114.047 C 151 117.286, 150.533 118.194, 148.250 119.396 C 141.716 122.834, 131.053 137.280, 131.010 142.750 C 131.004 143.470, 129.728 144, 128 144 C 121.341 144, 118.421 152.705, 123.500 157.412 L 126 159.729 126 247.690 L 126 335.651 123.500 338 C 121.046 340.305, 120.306 344.029, 121.621 347.455 C 123.318 351.876, 124.943 352, 181.385 352 C 212.956 352, 235.899 351.609, 237.383 351.045 C 243.324 348.786, 244.385 342.060, 239.474 337.790 L 237 335.639 237 247.607 L 237 159.575 239.700 157.422 C 245.252 152.995, 242.116 144, 235.019 144 C 232.600 144, 232.104 143.442, 230.991 139.469 C 229.211 133.109, 222.884 124.716, 216.993 120.898 C 212.462 117.962, 212 117.316, 212 113.904 C 212 109.279, 208.417 106, 203.365 106 L 200 106 200 90.200 C 200 79.244, 199.632 74.032, 198.800 73.200 C 197.965 72.365, 192.655 72, 181.350 72 C 167.297 72, 164.975 72.223, 164.177 73.648 M 169.667 77.667 C 169.300 78.033, 169 84.558, 169 92.167 L 169 106 181.500 106 L 194 106 194 91.500 L 194 77 182.167 77 C 175.658 77, 170.033 77.300, 169.667 77.667 M 179.270 81.715 C 176.439 82.247, 173 86.565, 173 89.588 C 173 97.690, 182.065 102.026, 187.545 96.545 C 193.773 90.318, 188.053 80.067, 179.270 81.715 M 179.238 88.162 C 177.468 89.932, 177.709 91.774, 179.862 92.926 C 182.296 94.229, 185.355 92.087, 184.849 89.434 C 184.415 87.159, 181.012 86.388, 179.238 88.162 M 156.457 113.070 C 154.870 115.638, 158.557 116.026, 182.068 115.768 C 202.999 115.538, 206.500 115.285, 206.500 114 C 206.500 112.714, 202.972 112.462, 181.820 112.233 C 164.622 112.046, 156.932 112.300, 156.457 113.070 M 154 122.725 C 147.633 125.131, 139.076 134.716, 137.462 141.250 L 136.783 144 181.392 144 C 232.073 144, 228.422 144.756, 223.041 135.374 C 220.275 130.551, 215.270 125.741, 210.316 123.145 C 208.055 121.960, 157.030 121.580, 154 122.725 M 126.339 150.559 C 126.007 151.425, 126.158 152.558, 126.676 153.076 C 127.248 153.648, 148.983 153.916, 182.059 153.759 C 235.747 153.504, 236.500 153.472, 236.500 151.500 C 236.500 149.527, 235.747 149.496, 181.722 149.241 C 132.629 149.010, 126.881 149.146, 126.339 150.559 M 132 247.500 L 132 336.019 181.750 335.759 L 231.500 335.500 231.500 247.500 L 231.500 159.500 181.750 159.241 L 132 158.981 132 247.500 M 127.036 342.456 C 126.372 343.257, 126.118 344.382, 126.473 344.956 C 126.908 345.661, 144.830 346, 181.590 346 C 230.614 346, 236.124 345.840, 236.677 344.399 C 237.015 343.519, 236.663 342.400, 235.896 341.914 C 235.128 341.428, 210.593 341.024, 181.372 341.015 C 136.065 341.002, 128.067 341.214, 127.036 342.456" stroke="none" fill="currentColor" fill-rule="evenodd"/>
</svg>