<svg fill="currentColor" xmlns="http://www.w3.org/2000/svg" width="24" height="24" viewBox="0 0 256 256" version="1.1">
	<path d="M 120.725 48.752 C 118.369 51.355, 116.806 56.054, 117.857 57.372 C 119.462 59.384, 120.112 71.311, 119.029 78.872 C 118.448 82.927, 117.337 93.194, 116.561 101.689 C 115.157 117.041, 115.124 117.175, 110.952 124.079 C 103.809 135.901, 104.092 133.313, 104.044 187.173 L 104 235.847 106.589 238.923 L 109.178 242 132.415 242 L 155.651 242 158.076 239.420 L 160.500 236.839 160.500 188.170 C 160.500 161.401, 160.155 137.880, 159.733 135.900 C 159.311 133.920, 156.922 129.106, 154.424 125.202 L 149.883 118.103 147.790 98.802 C 145.657 79.129, 144.897 59.182, 146.250 58.346 C 147.744 57.422, 146.952 52.209, 144.927 49.635 C 142.929 47.094, 142.489 47, 132.582 47 C 124.065 47, 122.039 47.299, 120.725 48.752 M 122.153 52.714 C 121.263 54.378, 121.945 54.500, 132.124 54.500 C 141.297 54.500, 143.004 54.259, 142.764 53 C 142.537 51.814, 140.450 51.440, 132.793 51.214 C 124.343 50.965, 122.987 51.156, 122.153 52.714 M 123.416 58.917 C 123.187 59.146, 123 60.608, 123 62.167 L 123 65 130 65 C 135.556 65, 137 65.310, 137 66.500 C 137 67.679, 135.611 68, 130.500 68 C 125.986 68, 123.989 68.382, 123.964 69.250 C 123.944 69.938, 123.349 74.888, 122.642 80.250 L 121.356 90 132.307 90 L 143.258 90 142.408 82.750 C 141.940 78.763, 141.544 71.711, 141.528 67.080 L 141.500 58.659 132.666 58.580 C 127.808 58.536, 123.645 58.688, 123.416 58.917 M 120.557 99.750 C 118.638 118.564, 118.320 119.869, 114.063 126.403 C 111.793 129.887, 109.500 134.257, 108.968 136.113 C 108.404 138.078, 108 159.618, 108 187.687 L 108 235.887 110.223 237.443 C 112.057 238.728, 115.988 239, 132.723 239 C 151.757 239, 153.124 238.876, 155.027 236.973 C 157.016 234.984, 157.049 234.021, 156.777 185.723 C 156.472 131.507, 157.068 136.668, 149.736 124.715 C 146.139 118.850, 146.081 118.590, 144.402 100.750 L 143.767 94 132.455 94 L 121.144 94 120.557 99.750 M 117.076 129.881 C 113.436 135.554, 110.951 145.351, 112.708 147.108 C 114.365 148.765, 116 147.267, 116 144.090 C 116 140.182, 117.859 135.062, 120.638 131.317 C 121.937 129.566, 123 127.428, 123 126.567 C 123 123.490, 120.157 125.080, 117.076 129.881" stroke="none" fill="currentColor" fill-rule="evenodd"/>
</svg>