<svg fill="currentColor" xmlns="http://www.w3.org/2000/svg" width="24" height="24" viewBox="0 0 400 400" version="1.1">
	<path d="M 193.298 73.699 C 187.518 74.820, 181.602 87.773, 185.551 90.661 C 186.836 91.601, 187.048 92.755, 186.515 95.911 C 186.045 98.694, 186.300 100.896, 187.334 102.968 C 188.695 105.695, 188.615 107.750, 186.490 124.740 C 185.199 135.058, 183.407 152.050, 182.506 162.500 C 180.688 183.599, 180.286 184.956, 172.157 197.377 C 163.541 210.542, 164 205.179, 164 292.720 L 164 370.077 167.929 374.289 L 171.857 378.500 207.179 378.500 C 242.147 378.500, 242.531 378.478, 245.636 376.263 C 252.160 371.609, 252 373.707, 252 293.029 C 252 242.803, 251.650 218.449, 250.875 214.799 C 249.573 208.669, 245.364 199.862, 239.978 192 C 235.054 184.813, 234.333 182.096, 233.082 166 C 232.505 158.575, 230.836 142.238, 229.374 129.696 C 227.088 110.086, 226.895 106.349, 227.996 103.012 C 228.741 100.754, 229.012 97.475, 228.643 95.171 C 228.161 92.157, 228.367 91.073, 229.505 90.636 C 231.586 89.838, 231.408 84.243, 229.165 79.984 C 226.110 74.182, 222.401 72.983, 208 73.138 C 201.125 73.212, 194.509 73.465, 193.298 73.699 M 193.347 80.469 C 192.193 81.278, 190.993 82.917, 190.681 84.113 C 190.254 85.746, 190.397 86.003, 191.256 85.144 C 192.702 83.698, 196.264 83.664, 197.682 85.082 C 198.458 85.858, 199.346 85.801, 200.820 84.880 C 202.496 83.833, 203.325 83.836, 205.300 84.893 C 207.285 85.955, 208.098 85.955, 209.800 84.893 C 211.501 83.830, 212.314 83.830, 214.300 84.893 C 216.294 85.960, 217.102 85.953, 218.862 84.854 C 220.585 83.778, 221.388 83.761, 223 84.768 C 225.586 86.383, 225.553 84.973, 222.927 81.635 C 220.883 79.035, 220.684 79, 208.150 79 C 198.593 79, 194.925 79.364, 193.347 80.469 M 192.904 94.791 C 191.028 100.477, 191.741 100.901, 203.705 101.216 C 214.039 101.488, 214.514 101.596, 214.820 103.750 C 215.184 106.315, 214.997 106.356, 202.536 106.444 L 194.572 106.500 192.840 120.500 C 191.888 128.200, 191.084 135.963, 191.054 137.750 L 191 141 208.012 141 L 225.024 141 224.502 137.250 C 220.891 111.271, 220.421 103.900, 222.194 101.060 C 223.037 99.711, 223.111 98.058, 222.444 95.448 L 221.500 91.749 207.745 91.625 L 193.990 91.500 192.904 94.791 M 206.834 146.760 L 190.168 147.048 189.596 150.774 C 189.281 152.823, 188.537 160.350, 187.943 167.500 C 186.511 184.716, 185.853 186.912, 178.878 197.726 C 168.761 213.414, 169.597 205.647, 169.210 287.500 C 169.022 327.100, 169.160 361.469, 169.515 363.876 C 169.901 366.492, 171.115 369.206, 172.535 370.626 L 174.909 373 207.531 373 L 240.154 373 243.101 370.053 L 246.048 367.105 245.774 290.803 L 245.500 214.500 242.902 208.962 C 241.474 205.916, 238.439 200.691, 236.159 197.351 C 229.645 187.807, 228.901 185.148, 227.127 165.081 C 226.213 154.737, 225.062 146.621, 224.500 146.567 C 223.950 146.515, 216 146.601, 206.834 146.760 M 184.946 201.080 C 179.510 209.084, 177.319 214.280, 176.483 221.142 C 175.607 228.338, 176.457 231.218, 179.336 230.808 C 181.016 230.569, 181.563 229.717, 181.782 227 C 182.511 217.973, 184.302 212.717, 189.084 205.566 C 194.078 198.099, 194.620 195, 190.930 195 C 189.779 195, 187.508 197.307, 184.946 201.080" stroke="none" fill="currentColor" fill-rule="evenodd"/>
</svg>