<svg fill="currentColor" xmlns="http://www.w3.org/2000/svg" width="24" height="24" viewBox="0 0 400 400" version="1.1">
	<path d="M 179 100.036 C 156.015 102.198, 139.565 105.961, 135.157 110.068 C 133.155 111.933, 133 113.040, 133 125.466 C 133 138.556, 133.056 138.899, 135.500 140.821 L 138 142.788 138 218.790 L 138 294.793 141.480 297.848 C 152.560 307.577, 204.319 312.791, 241 307.873 C 258.279 305.556, 273.666 300.361, 275.964 296.067 C 276.652 294.781, 277 268.871, 277 218.870 L 277 143.609 279.582 140.914 C 281.969 138.423, 282.202 137.366, 282.653 126.986 C 282.982 119.412, 282.746 114.800, 281.927 112.824 C 279.810 107.712, 270.405 104.419, 249.419 101.442 C 236.425 99.599, 192.894 98.730, 179 100.036 M 176 106.081 C 155.551 108.325, 138.007 112.585, 139.470 114.952 C 140.431 116.507, 152.510 119.924, 162.458 121.455 C 171.302 122.816, 177.736 123.362, 199 124.557 C 209.690 125.158, 238.225 123.702, 250 121.954 C 260.307 120.424, 273.823 116.918, 275.034 115.460 C 277.162 112.895, 269.697 110.438, 250.500 107.383 C 238.620 105.492, 189.233 104.629, 176 106.081 M 139 129.585 L 139 136.856 144.250 138.803 C 170.536 148.552, 253.310 147.944, 273.250 137.856 L 277 135.959 277 128.912 C 277 122.666, 276.801 121.925, 275.250 122.394 C 255.084 128.482, 245.630 129.488, 208.500 129.494 C 174.356 129.500, 162.242 128.516, 147.250 124.515 L 139 122.313 139 129.585 M 144.244 219.141 L 144.500 293.500 148.040 295.232 C 152.688 297.506, 165.273 300.575, 176.500 302.172 C 188.426 303.869, 229.921 303.849, 240.500 302.141 C 251.008 300.445, 263.183 297.357, 267.523 295.288 L 271 293.630 271 219.449 L 271 145.268 265.250 146.596 C 245.316 151.199, 207.977 153.236, 182.661 151.100 C 169.183 149.964, 149.278 146.943, 145.744 145.499 C 144.076 144.818, 144 148.555, 144.244 219.141 M 205.667 158.667 C 205.300 159.033, 205 160.833, 205 162.667 L 205 166 198.551 166 C 189.209 166, 170.283 168.669, 162.434 171.093 C 158.409 172.336, 154.533 174.313, 152.882 175.965 L 150.102 178.744 150.301 225.982 L 150.500 273.220 153.809 275.982 C 161.177 282.132, 179.406 285.261, 208 285.284 C 237.178 285.307, 256.226 281.865, 262.687 275.403 L 265 273.091 265 226.180 C 265 181.076, 264.924 179.174, 263.037 176.774 C 258.832 171.428, 243.835 167.594, 222.250 166.346 C 211.418 165.719, 211 165.611, 211 163.429 C 211 159.931, 209.954 158, 208.060 158 C 207.110 158, 206.033 158.300, 205.667 158.667 M 185.500 172.666 C 170.700 174.475, 157 178.212, 157 180.441 C 157 182.464, 168.872 185.830, 182.232 187.595 C 195.976 189.409, 228.682 189.091, 239.500 187.037 C 247.052 185.603, 257.793 182.145, 258.563 180.898 C 260.358 177.994, 240.335 173.171, 222.815 172.289 L 211.130 171.701 210.815 176.101 C 210.533 180.043, 210.240 180.500, 208 180.500 C 205.774 180.500, 205.466 180.035, 205.193 176.250 L 204.885 172 196.693 172.150 C 192.187 172.232, 187.150 172.465, 185.500 172.666 M 156 229.378 C 156 275.177, 155.480 271.847, 163.046 274.516 C 184.423 282.059, 238.297 281.370, 254.724 273.345 L 258.500 271.500 258.761 229.750 C 258.905 206.787, 258.849 188, 258.637 188 C 258.425 188, 256.507 188.614, 254.376 189.365 C 243.841 193.075, 230.862 194.501, 208 194.460 C 185.156 194.419, 171.806 192.960, 161.724 189.402 C 159.537 188.631, 157.355 188, 156.874 188 C 156.389 188, 156 206.426, 156 229.378" stroke="none" fill="currentColor" fill-rule="evenodd"/>
</svg>