<svg fill="currentColor" xmlns="http://www.w3.org/2000/svg" width="24" height="24" viewBox="0 0 256 256" version="1.1">
	<path d="M 120 63.664 C 100.338 65.039, 87.983 67.759, 85.537 71.250 C 83.157 74.648, 83.449 86.030, 86 89.273 C 87.938 91.736, 88 93.330, 88 140.335 L 88 188.855 90.616 190.912 C 102.169 200, 161.820 200.244, 173.864 191.253 L 176.500 189.285 176.759 140.257 C 176.982 98.252, 177.232 91.052, 178.509 89.992 C 179.625 89.067, 180 86.527, 180 79.903 C 180 71.106, 179.982 71.042, 177.040 69.520 C 168.329 65.016, 140.916 62.201, 120 63.664 M 107.812 68.406 C 97.510 69.788, 89.260 71.770, 88.466 73.054 C 87.756 74.204, 96.355 76.797, 105.500 78.191 C 109.989 78.876, 122.497 79.379, 134 79.337 C 150.731 79.277, 156.320 78.881, 164.401 77.181 C 169.847 76.035, 174.732 74.668, 175.258 74.142 C 180.099 69.301, 131.777 65.192, 107.812 68.406 M 88 82.367 C 88 86.445, 88.329 87.119, 90.997 88.498 C 102.732 94.567, 159.067 94.595, 173.559 88.540 C 176.782 87.193, 177 86.807, 177 82.444 C 177 78.410, 176.765 77.879, 175.250 78.479 C 167.086 81.713, 158.815 82.471, 132 82.444 C 105.111 82.416, 98.341 81.778, 89.750 78.462 C 88.240 77.879, 88 78.413, 88 82.367 M 91.450 140.192 L 91.500 187.500 95 189.210 C 101.204 192.240, 116.388 194.255, 133 194.250 C 149.121 194.246, 158.504 193.144, 167.316 190.220 L 172.500 188.500 172.760 140.680 C 173.006 95.424, 172.925 92.889, 171.260 93.417 C 170.292 93.724, 165 94.653, 159.500 95.482 C 141.804 98.148, 108.298 97.125, 93.753 93.474 L 91.399 92.883 91.450 140.192 M 131 103.396 C 131 105.677, 130.604 105.823, 122.750 106.451 C 111.646 107.338, 104.266 108.842, 99.736 111.143 L 95.972 113.055 96.236 144.170 L 96.500 175.285 99 177.120 C 104.250 180.974, 113.377 182.409, 132.500 182.389 C 151.613 182.368, 160.825 180.919, 166 177.120 L 168.500 175.285 168.764 144.726 L 169.029 114.168 166.399 112.099 C 162.831 109.292, 158.494 108.209, 145.250 106.815 C 134.496 105.684, 134 105.529, 134 103.316 C 134 101.924, 133.401 101, 132.500 101 C 131.584 101, 131 101.933, 131 103.396 M 111.414 111.467 C 107.517 112.175, 103.273 113.319, 101.984 114.009 C 99.812 115.171, 99.767 115.356, 101.369 116.528 C 108.644 121.848, 153.204 122.026, 163.357 116.775 C 164.542 116.163, 164.868 115.468, 164.256 114.856 C 162.512 113.112, 152.638 110.989, 143.250 110.339 L 134 109.698 134 112.849 C 134 114.983, 133.516 116, 132.500 116 C 131.500 116, 131 115, 131 113 L 131 110 124.750 110.090 C 121.313 110.140, 115.311 110.760, 111.414 111.467 M 99.781 146.749 C 99.510 172.344, 99.571 173.330, 101.500 174.586 C 109.550 179.828, 149.895 180.413, 161.750 175.460 L 165 174.102 165 147.228 L 165 120.354 157.858 122.168 C 143.578 125.795, 117.595 125.491, 104.482 121.545 L 100.063 120.215 99.781 146.749" stroke="none" fill="currentColor" fill-rule="evenodd"/>
</svg>