<svg fill="currentColor" xmlns="http://www.w3.org/2000/svg" width="24" height="24" viewBox="0 0 400 400" version="1.1">
	<path d="M 192.153 74.018 C 185.928 75.322, 181.751 78.035, 179.822 82.028 C 177.521 86.790, 174 108.555, 174 118.017 L 174 125.783 178.028 127.394 L 182.055 129.006 181.473 135.753 C 178.106 174.781, 175.036 188.801, 163.039 219.937 C 152.168 248.150, 152.009 249.494, 152.004 313.282 C 152.001 354.761, 152.271 365.714, 153.364 368.329 C 155.103 372.491, 160.014 376.632, 164.781 377.956 C 167 378.572, 181.813 378.982, 201.500 378.972 C 231.451 378.958, 234.870 378.786, 238.500 377.110 C 243.128 374.974, 246.417 371.688, 247.933 367.685 C 249.344 363.962, 249.379 267.469, 247.973 256.261 C 246.689 246.017, 242.920 233.040, 235.263 212.500 C 225.947 187.508, 221.062 164.066, 219.677 137.699 L 219.215 128.898 223.107 127.340 L 227 125.783 226.994 118.641 C 226.988 111.534, 225.174 97.442, 222.926 87.047 C 221.529 80.584, 218.090 76.673, 212.421 75.101 C 206.617 73.491, 197.094 72.982, 192.153 74.018 M 196.728 78.722 C 198.503 78.943, 201.653 78.946, 203.728 78.730 C 205.802 78.513, 204.350 78.333, 200.500 78.328 C 196.650 78.324, 194.952 78.501, 196.728 78.722 M 185.068 83.874 C 182.755 88.195, 184.357 97, 187.456 97 C 188.428 97, 189.056 94.987, 189.564 90.250 C 189.961 86.537, 190.335 83.275, 190.393 83 C 190.452 82.725, 189.518 82.360, 188.318 82.189 C 186.940 81.993, 185.742 82.614, 185.068 83.874 M 211.009 84.250 C 211.033 90.434, 212.369 97, 213.604 97 C 216.610 97, 218.013 89.794, 216.025 84.565 C 214.757 81.230, 210.996 80.993, 211.009 84.250 M 194.633 83.785 C 194.366 84.216, 193.832 87.366, 193.445 90.785 L 192.742 97 200.513 97 L 208.285 97 207.649 90.915 C 207.299 87.568, 206.758 84.418, 206.447 83.915 C 205.758 82.800, 195.313 82.685, 194.633 83.785 M 179.639 99.499 C 179.287 100.415, 178.706 106.303, 178.347 112.583 C 177.748 123.082, 177.837 124, 179.464 124 C 180.851 124, 181.074 123.514, 180.495 121.750 C 178.835 116.691, 178.793 110.965, 180.398 108.516 C 182.129 105.874, 182.483 101.311, 181.124 99.166 C 180.449 98.102, 180.149 98.170, 179.639 99.499 M 219.695 99.639 C 218.442 100.891, 218.967 106.020, 220.602 108.516 C 222.207 110.965, 222.165 116.691, 220.505 121.750 C 219.926 123.514, 220.149 124, 221.536 124 C 223.160 124, 223.254 123.092, 222.673 112.948 C 222.062 102.272, 221.148 98.185, 219.695 99.639 M 192 110.500 L 192 118 200.500 118 L 209 118 209 110.500 L 209 103 200.500 103 L 192 103 192 110.500 M 213.320 114 C 213.320 120.325, 213.499 124.071, 213.718 122.324 C 213.937 120.578, 214.765 118.610, 215.558 117.952 C 217.388 116.433, 217.396 114.010, 215.578 111.414 C 214.795 110.297, 213.967 107.835, 213.738 105.942 C 213.508 104.049, 213.320 107.675, 213.320 114 M 185.697 110.791 C 183.821 114.708, 184.140 117.456, 186.577 118.391 C 187.710 118.826, 188 117.719, 188 112.969 C 188 109.686, 187.887 107.005, 187.750 107.011 C 187.613 107.018, 186.688 108.718, 185.697 110.791 M 191 122.965 C 191 124.755, 194.837 126, 200.352 126 C 206.754 126, 209 125.323, 209 123.393 C 209 122.306, 207.026 122, 200 122 C 194.885 122, 191 122.417, 191 122.965 M 186.687 141.950 C 186.039 155.420, 183.827 172.014, 181.462 181.144 C 179.420 189.028, 179.539 189.705, 183.054 190.221 C 185.376 190.562, 186.874 189.995, 189.304 187.857 C 195.390 182.502, 205.407 182.516, 211.527 187.890 C 213.988 190.050, 215.442 190.589, 217.861 190.234 C 221.470 189.704, 221.588 189.060, 219.538 181.144 C 217.173 172.014, 214.961 155.420, 214.313 141.950 L 213.710 129.400 200.500 129.400 L 187.290 129.400 186.687 141.950 M 192.514 193.122 C 189.260 195.979, 188.496 196.206, 183.512 195.793 L 178.066 195.341 175.543 202.847 C 174.155 206.975, 173.127 210.426, 173.259 210.516 C 173.392 210.606, 176.425 211.468, 180 212.433 C 184.582 213.669, 187.568 215.214, 190.120 217.669 C 193.909 221.314, 199.058 223.094, 203.409 222.262 C 204.822 221.992, 207.906 220.075, 210.261 218.001 C 213.203 215.412, 216.573 213.675, 221.022 212.455 C 224.585 211.478, 227.608 210.606, 227.741 210.516 C 227.873 210.426, 226.841 206.962, 225.448 202.818 L 222.915 195.284 218.707 196.099 C 216.393 196.546, 214.205 196.932, 213.845 196.956 C 213.484 196.980, 211.304 195.425, 209 193.500 C 203.286 188.726, 197.667 188.597, 192.514 193.122 M 170.523 216.963 C 170.168 217.537, 168.115 222.947, 165.961 228.985 C 160.689 243.766, 158.204 256.891, 157.819 272 L 157.500 284.500 200.427 284.500 L 243.354 284.500 243.104 272.500 C 242.966 265.900, 242.193 256.675, 241.386 252 C 239.936 243.607, 232.601 220.189, 230.555 217.422 C 228.885 215.164, 218.427 218.429, 214 222.591 C 209.736 226.600, 206.241 228, 200.500 228 C 194.799 228, 191.935 226.839, 187.297 222.649 C 185.190 220.746, 181.481 218.689, 178.994 218.045 C 176.522 217.405, 173.750 216.664, 172.834 216.400 C 171.918 216.135, 170.878 216.389, 170.523 216.963 M 157.456 291.254 C 157.187 291.956, 157.086 304.673, 157.233 319.515 L 157.500 346.500 200.390 346.500 L 243.281 346.500 243.339 318.500 L 243.398 290.500 200.672 290.239 C 166.764 290.032, 157.844 290.242, 157.456 291.254 M 157.488 358.749 C 158.431 366.298, 160.378 369.842, 164.534 371.579 C 169.493 373.651, 231.497 373.655, 236.454 371.584 C 240.986 369.690, 242.643 366.733, 243.366 359.250 L 243.969 353 200.369 353 L 156.770 353 157.488 358.749" stroke="none" fill="currentColor" fill-rule="evenodd"/>
</svg>