<svg fill="currentColor" xmlns="http://www.w3.org/2000/svg" width="24" height="24" viewBox="0 0 256 256" version="1.1">
	<path d="M 119.500 48.386 C 117.849 49.105, 115.975 50.325, 115.335 51.097 C 113.707 53.059, 111 68.044, 111 75.091 C 111 80.519, 111.188 81.009, 113.500 81.589 C 116.393 82.315, 116.307 81.480, 114.944 95.576 C 113.554 109.958, 110.228 123.675, 104.153 140.093 C 101.424 147.467, 98.698 156.170, 98.095 159.434 C 97.438 162.995, 97 179.107, 97 199.733 C 97 237.014, 97.184 238.396, 102.472 240.805 C 104.267 241.623, 112.490 242, 128.531 242 L 151.968 242 155.234 239.083 L 158.500 236.166 158.802 203.833 C 159.196 161.807, 158.916 159.830, 148.618 131.778 C 144.230 119.825, 141.242 105.539, 140.381 92.396 L 139.729 82.445 142.364 81.244 C 144.432 80.301, 144.999 79.338, 144.994 76.771 C 144.983 70.570, 141.992 53.636, 140.507 51.370 C 137.854 47.321, 125.854 45.616, 119.500 48.386 M 126.750 50.662 C 127.438 50.940, 128.563 50.940, 129.250 50.662 C 129.938 50.385, 129.375 50.158, 128 50.158 C 126.625 50.158, 126.063 50.385, 126.750 50.662 M 117.429 55.428 C 116.662 58.485, 117.796 62.233, 119.335 61.727 C 119.976 61.517, 120.638 59.467, 120.807 57.172 C 121.045 53.951, 120.764 53, 119.577 53 C 118.730 53, 117.764 54.093, 117.429 55.428 M 123.630 55.250 C 123.299 56.487, 123.021 58.513, 123.014 59.750 C 123.001 61.792, 123.473 62, 128.125 62 L 133.250 62 132.625 58.875 C 132.281 57.156, 132 55.131, 132 54.375 C 132 53.444, 130.745 53, 128.117 53 C 124.935 53, 124.124 53.406, 123.630 55.250 M 134.733 57.250 C 135.359 62.160, 135.497 62.429, 136.933 61.541 C 137.520 61.179, 138 59.109, 138 56.941 C 138 53.732, 137.646 53, 136.095 53 C 134.436 53, 134.260 53.548, 134.733 57.250 M 114 66.500 C 114 68.657, 114.404 69.869, 115 69.500 C 115.550 69.160, 116 67.810, 116 66.500 C 116 65.190, 115.550 63.840, 115 63.500 C 114.404 63.131, 114 64.343, 114 66.500 M 140.086 65.500 C 140.055 67.150, 140.467 69.175, 141 70 C 141.764 71.182, 141.958 70.970, 141.914 69 C 141.884 67.625, 141.473 65.600, 141 64.500 C 140.262 62.783, 140.133 62.924, 140.086 65.500 M 122 70.500 L 122 75 127.757 75 L 133.514 75 133.157 70.500 L 132.799 66 127.399 66 L 122 66 122 70.500 M 118.343 71.114 C 117.668 72.616, 117.541 74.258, 118.039 75.063 C 119.324 77.141, 120.181 75.604, 119.821 71.868 L 119.500 68.545 118.343 71.114 M 136.015 72.309 C 136.006 74.597, 136.399 75.871, 137 75.500 C 138.264 74.719, 138.264 71.956, 137 70 C 136.280 68.887, 136.027 69.481, 136.015 72.309 M 113 76.333 C 113 78.064, 113.539 79, 114.535 79 C 115.807 79, 115.870 78.615, 114.900 76.750 C 113.178 73.441, 113 73.402, 113 76.333 M 140.638 77.500 C 140.322 78.325, 140.499 79, 141.031 79 C 141.564 79, 142 78.325, 142 77.500 C 142 76.675, 141.823 76, 141.607 76 C 141.391 76, 140.955 76.675, 140.638 77.500 M 122 79 C 122 79.557, 124.686 80, 128.059 80 C 131.844 80, 133.886 79.625, 133.500 79 C 133.160 78.450, 130.434 78, 127.441 78 C 124.448 78, 122 78.450, 122 79 M 119.417 82.917 C 119.188 83.146, 118.997 86.071, 118.994 89.417 C 118.989 94.688, 117.729 104.768, 115.389 118.250 C 114.845 121.387, 115.021 122, 116.465 122 C 117.414 122, 119.518 121.055, 121.140 119.900 C 122.814 118.708, 125.636 117.800, 127.664 117.800 C 129.727 117.800, 132.439 118.688, 134.079 119.900 C 135.641 121.055, 137.890 122, 139.076 122 C 140.906 122, 141.143 121.583, 140.640 119.250 C 138.941 111.370, 137.059 98.539, 136.496 91 L 135.862 82.500 127.848 82.500 C 123.440 82.500, 119.646 82.688, 119.417 82.917 M 124.500 122.216 C 123.400 122.851, 121.893 123.974, 121.152 124.712 C 120.288 125.572, 118.659 125.839, 116.615 125.456 C 113.522 124.875, 113.380 125.005, 111.834 129.840 L 110.240 134.823 114.441 135.881 C 116.751 136.463, 119.870 138.077, 121.372 139.469 C 125.053 142.880, 130.764 142.944, 133.897 139.610 C 135.131 138.296, 138.167 136.653, 140.642 135.960 C 145.477 134.607, 145.572 134.264, 142.987 127.466 C 142.122 125.191, 141.592 124.931, 138.986 125.503 C 136.618 126.023, 135.333 125.616, 132.914 123.581 C 129.569 120.766, 127.571 120.442, 124.500 122.216 M 107.440 141.489 C 104 149.723, 100.952 162.885, 100.347 172.122 L 99.699 182 127.489 182 L 155.279 182 154.751 170.750 C 154.333 161.855, 153.572 157.511, 151.113 150 C 146.995 137.415, 147.334 137.817, 142.144 139.349 C 139.785 140.046, 137.551 141.066, 137.178 141.616 C 135.629 143.902, 131.338 146, 128.212 146 C 124.601 146, 121.656 144.778, 118.500 141.971 C 117.400 140.992, 114.778 139.725, 112.674 139.155 C 108.918 138.138, 108.822 138.181, 107.440 141.489 M 100 204 L 100 222 127.500 222 L 155 222 155 204 L 155 186 127.500 186 L 100 186 100 204 M 100 229.444 C 100 231.643, 100.872 233.903, 102.413 235.694 L 104.827 238.500 127.808 238.500 C 149.005 238.500, 150.954 238.352, 152.895 236.595 C 154.420 235.215, 155 233.492, 155 230.345 L 155 226 127.500 226 L 100 226 100 229.444" stroke="none" fill="currentColor" fill-rule="evenodd"/>
</svg>