<svg fill="currentColor" xmlns="http://www.w3.org/2000/svg" width="24" height="24" viewBox="0 0 400 400" version="1.1">
	<path d="M 159.444 149.010 C 129.135 151.404, 105.947 157.563, 98.918 165.088 L 96 168.212 96.015 191.856 C 96.024 204.860, 96.441 216.149, 96.943 216.942 C 97.580 217.948, 97.122 219.254, 95.428 221.268 L 93 224.153 93 265.142 C 93 290.960, 93.376 306.833, 94.015 308.028 C 98.196 315.840, 124.095 324.083, 153.424 326.937 C 167.383 328.295, 197.762 328.305, 211.144 326.956 C 233.053 324.746, 254.586 319.156, 263.289 313.418 C 271.192 308.208, 270.992 309.469, 270.996 264.766 L 271 225.032 268.159 221.851 C 265.495 218.870, 265.406 218.494, 266.729 215.842 C 267.847 213.600, 268.074 208.459, 267.820 191.077 C 267.454 165.994, 267.442 165.956, 258.468 160.909 C 242.444 151.897, 195.031 146.200, 159.444 149.010 M 158.500 154.587 C 156.850 154.814, 151.350 155.480, 146.278 156.068 C 126.816 158.325, 106.767 164.285, 102.398 169.113 C 100.784 170.896, 100.795 171.118, 102.595 173.144 C 106.611 177.665, 121.044 182.385, 140.537 185.553 C 154.109 187.759, 194.157 188.620, 209.664 187.040 C 225.062 185.471, 235.625 183.503, 245.459 180.370 C 254.892 177.366, 257.851 175.927, 260.407 173.102 C 262.189 171.134, 262.204 170.883, 260.640 169.155 C 256.253 164.307, 242.227 159.750, 221.399 156.407 C 211.978 154.894, 165.956 153.563, 158.500 154.587 M 101.184 182.750 C 102.113 190.823, 133.008 198.163, 173.035 199.819 C 188.606 200.463, 189.500 200.609, 189.500 202.500 C 189.500 204.381, 188.728 204.519, 176.500 204.817 C 152.793 205.396, 127.682 202.008, 110.360 195.894 C 100.696 192.483, 100.650 192.477, 101.894 194.803 C 104.644 199.941, 122.992 205.760, 144.970 208.465 C 161.642 210.517, 199.358 210.517, 216.030 208.465 C 236.495 205.947, 250.799 201.755, 259.250 195.801 C 261.799 194.005, 262 193.358, 262 186.932 C 262 183.119, 261.650 180, 261.223 180 C 260.795 180, 259.557 180.619, 258.473 181.377 C 255.151 183.694, 237.498 188.917, 227.737 190.470 C 184.834 197.294, 129.438 193.438, 105.714 181.976 C 100.601 179.505, 100.806 179.470, 101.184 182.750 M 255 204.712 C 248.170 208.088, 238.164 210.765, 221.500 213.675 C 206.946 216.217, 156.248 216.254, 140.378 213.734 C 127.110 211.628, 115.892 208.785, 107.680 205.448 C 101.034 202.747, 99.712 202.917, 102.589 206.102 C 106.983 210.964, 119.587 215.408, 138 218.587 C 152.855 221.151, 196.608 221.690, 214.441 219.528 C 237.459 216.738, 258.202 210.227, 261.054 204.899 C 262.907 201.437, 261.702 201.400, 255 204.712 M 256 215.248 C 233.379 226.552, 175.195 230.431, 133.899 223.388 C 123.573 221.627, 110.587 217.830, 104.750 214.864 C 100.019 212.461, 99.885 214.048, 104.521 217.584 C 109.257 221.196, 122.885 225.650, 136.951 228.182 C 153.445 231.151, 195.579 231.895, 215.719 229.573 C 236.906 227.131, 252.318 222.719, 258.920 217.208 C 263.847 213.095, 262.338 212.081, 256 215.248 M 99.632 225.115 C 98.817 226.278, 98.349 227.740, 98.591 228.365 C 100.142 232.364, 116.571 238.669, 132.542 241.395 C 163.142 246.618, 208.343 246.198, 236.500 240.428 C 246.900 238.297, 258.780 233.707, 262.250 230.478 C 265.479 227.473, 265.587 226.842, 263.240 224.717 C 261.619 223.250, 261.006 223.350, 255.490 225.987 C 240.052 233.366, 217.946 236.449, 181 236.374 C 145.294 236.302, 124.590 233.323, 108.112 225.884 C 104.598 224.298, 101.586 223, 101.418 223 C 101.251 223, 100.447 223.952, 99.632 225.115 M 98 269.782 C 98 302.209, 98.090 303.844, 99.999 306.271 C 104.352 311.805, 127.121 318.330, 151.211 320.945 C 163.534 322.284, 202.684 322.300, 214.500 320.972 C 236.538 318.495, 256.248 312.670, 262.750 306.713 C 264.999 304.652, 265 304.643, 265 270.391 L 265 236.130 257.750 239.476 C 240.072 247.635, 209.277 251.736, 173.500 250.696 C 137.904 249.661, 117.377 245.684, 98.750 236.215 C 98.338 236.005, 98 251.110, 98 269.782" stroke="none" fill="currentColor" fill-rule="evenodd"/>
</svg>