<svg fill="currentColor" xmlns="http://www.w3.org/2000/svg" width="24" height="24" viewBox="0 0 256 256" version="1.1">
	<path d="M 97.500 95.700 C 90.817 96.307, 76.787 98.991, 71.719 100.633 C 69.089 101.485, 65.576 103.327, 63.911 104.728 L 60.884 107.275 61.074 124.206 C 61.203 135.709, 60.901 141.499, 60.132 142.268 C 59.346 143.054, 59 151.543, 59 170.026 C 59 196.388, 59.022 196.672, 61.262 198.777 C 64.759 202.061, 71.521 204.656, 83 207.117 C 97.234 210.169, 132.541 210.489, 146.347 207.692 C 161.372 204.647, 169.755 200.883, 171.932 196.203 C 173.469 192.898, 173.375 145.565, 171.825 142.684 C 171.039 141.223, 170.733 135.526, 170.902 125.465 C 171.186 108.434, 170.628 106.277, 165.147 103.216 C 153.978 96.979, 122.237 93.452, 97.500 95.700 M 101.500 99.019 C 79.422 100.614, 61.597 106.399, 65.239 110.788 C 70.678 117.341, 103.151 122.060, 128.743 120.017 C 144.667 118.745, 154.595 116.790, 161.741 113.518 C 168.507 110.421, 168.507 108.579, 161.741 105.482 C 154.576 102.201, 143.904 100.083, 129 98.982 C 115.375 97.975, 115.960 97.974, 101.500 99.019 M 64 116.381 C 64 121.667, 82.745 126.566, 107.250 127.684 C 117.787 128.165, 121 128.625, 121 129.656 C 121 130.706, 118.426 130.999, 109.250 130.994 C 92.225 130.986, 77.180 128.396, 65.614 123.483 C 62.534 122.174, 64.199 125.212, 67.674 127.242 C 83.011 136.199, 136.486 137.267, 158.117 129.047 C 165.406 126.278, 167 124.532, 167 119.319 L 167 114.949 164.093 116.452 C 145.142 126.252, 90.961 126.489, 68.250 116.871 C 64.997 115.493, 64 115.378, 64 116.381 M 161 131.602 C 150.514 135.855, 141.605 137.177, 120 137.686 C 97.107 138.225, 84.521 136.902, 71.762 132.617 C 67.768 131.276, 64.358 130.318, 64.184 130.489 C 63.139 131.514, 69.100 135.059, 74.809 136.807 C 86.397 140.353, 95.714 141.397, 115.500 141.368 C 135.706 141.337, 148.247 139.750, 158.447 135.934 C 163.106 134.191, 168.051 130.536, 166.911 129.679 C 166.685 129.510, 164.025 130.375, 161 131.602 M 162.224 138.196 C 152.788 142.394, 141.423 144.143, 120 144.694 C 102.139 145.153, 97.911 144.950, 87.156 143.116 C 80.367 141.958, 72.760 140.103, 70.252 138.993 C 65.368 136.833, 63.415 137.090, 66.573 139.477 C 69.233 141.488, 79.113 144.668, 87.500 146.211 C 97.933 148.132, 137.268 147.821, 147.165 145.741 C 155.556 143.976, 164.270 140.584, 166.111 138.366 C 167.931 136.173, 166.875 136.127, 162.224 138.196 M 63.085 144.398 C 60.041 148.065, 73.095 153.065, 92.374 155.616 C 106.950 157.545, 133.617 157.024, 147.500 154.538 C 157.444 152.757, 169 147.960, 169 145.612 C 169 143.134, 167.089 142.730, 163.477 144.444 C 151.920 149.928, 125.286 152.787, 102.046 151.038 C 86.754 149.888, 78.642 148.376, 69.875 145.044 C 63.497 142.620, 64.483 142.713, 63.085 144.398 M 62.231 173.121 L 62.500 195.422 65.825 197.662 C 74.611 203.580, 93.713 206.335, 121.500 205.690 C 142.651 205.199, 152.503 203.741, 162.280 199.656 C 169.090 196.811, 169 197.168, 169 172.984 L 169 151.111 163.390 153.679 C 154.080 157.941, 138.193 160.196, 117 160.262 C 90.614 160.345, 75.782 157.872, 62.731 151.213 C 62.307 150.997, 62.082 160.856, 62.231 173.121" stroke="none" fill="currentColor" fill-rule="evenodd"/>
</svg>