<svg fill="currentColor" xmlns="http://www.w3.org/2000/svg" width="24" height="24" viewBox="0 0 400 400" version="1.1">
	<path d="M 207.007 49.593 C 205.086 50.426, 202.456 52.096, 201.162 53.304 C 196.049 58.078, 195.621 60.123, 194.952 83 C 194.179 109.388, 193.458 112.110, 186.948 113.222 C 179.085 114.564, 178.546 115.810, 178.180 133.508 L 177.860 148.965 180.430 151.347 C 181.959 152.764, 183 154.816, 183 156.410 C 183 157.960, 184.091 160.182, 185.587 161.677 C 187.670 163.761, 188.056 164.885, 187.574 167.457 C 186.871 171.205, 184.696 173.737, 178.545 177.969 C 174.214 180.949, 169.999 186.235, 166.957 192.500 C 165.741 195.004, 165.454 205.413, 165.221 255.500 L 164.943 315.500 167.221 319.926 C 171.404 328.051, 171.109 328, 214.087 328 C 251.531 328, 251.720 327.990, 255.102 325.730 C 262.315 320.912, 262.060 323.599, 261.765 255.500 L 261.500 194.500 258.828 189.437 C 256.298 184.644, 253.471 181.709, 244.254 174.312 C 238.667 169.828, 237.946 165.208, 242.173 160.981 C 244.322 158.832, 245.054 157.314, 244.663 155.819 C 244.275 154.337, 244.843 153.125, 246.555 151.778 C 248.959 149.887, 249 149.597, 249 134.483 C 249 119.974, 248.874 118.967, 246.750 116.531 C 245.275 114.839, 242.951 113.691, 240 113.198 C 235.510 112.447, 235.496 112.433, 233.830 106.473 C 232.568 101.960, 232.135 95.979, 232.058 82 C 231.971 66.269, 231.680 62.901, 230.110 59.500 C 227.876 54.659, 224.710 51.612, 219.768 49.548 C 215.165 47.624, 211.517 47.637, 207.007 49.593 M 205.235 57.421 L 201.500 60.842 200.912 82.671 C 200.466 99.233, 199.934 105.525, 198.706 108.750 L 197.089 113 213.544 113 C 222.595 113, 230 112.832, 230 112.626 C 230 112.420, 229.269 110.282, 228.376 107.876 C 227.160 104.598, 226.595 98.146, 226.126 82.172 L 225.500 60.844 221.765 57.422 C 218.662 54.579, 217.262 54, 213.500 54 C 209.738 54, 208.338 54.580, 205.235 57.421 M 184 133.500 L 184 148 213.500 148 L 243 148 243 133.500 L 243 119 213.500 119 L 184 119 184 133.500 M 189.278 154.122 C 188.661 154.739, 188.394 155.864, 188.685 156.622 C 189.114 157.741, 193.810 158, 213.638 158 C 235.111 158, 238.137 157.807, 238.677 156.399 C 239.015 155.519, 238.663 154.400, 237.896 153.914 C 235.762 152.563, 190.644 152.756, 189.278 154.122 M 193.499 166.750 C 192.491 173.135, 189.953 176.788, 183.002 181.860 C 177.922 185.567, 175.665 188.031, 173.653 192.069 L 171 197.393 171 257.242 L 171 317.091 173.455 319.545 L 175.909 322 213.780 322 L 251.651 322 254.076 319.419 L 256.500 316.838 256.500 257.142 L 256.500 197.445 253.972 192.534 C 252.284 189.253, 248.984 185.600, 244.032 181.526 C 236.331 175.192, 234.122 171.800, 234.045 166.193 C 234.001 162.926, 233.948 162.889, 229.750 163.193 L 225.500 163.500 225 226 C 224.546 282.799, 224.340 288.839, 222.750 292.218 C 221.787 294.263, 221 298.200, 221 300.968 C 221 307.150, 218.656 310, 213.573 310 C 208.767 310, 206 306.310, 206 299.902 C 206 297.247, 205.100 292.791, 204 290 C 202.077 285.122, 202 282.568, 202 223.963 L 202 163 198.045 163 C 194.247 163, 194.067 163.149, 193.499 166.750 M 207.667 163.667 C 207.300 164.033, 207 190.804, 207 223.156 C 207 279.553, 207.082 282.195, 208.999 287.239 C 210.099 290.133, 210.999 294.772, 210.999 297.550 C 211 303.114, 212.490 305.668, 214.676 303.854 C 215.425 303.232, 216 300.747, 216.001 298.128 C 216.001 295.582, 216.901 291.133, 218.001 288.239 C 219.919 283.191, 220 280.553, 220 222.989 L 220 163 214.167 163 C 210.958 163, 208.033 163.300, 207.667 163.667" stroke="none" fill="currentColor" fill-rule="evenodd"/>
</svg>