<svg fill="currentColor" xmlns="http://www.w3.org/2000/svg" width="24" height="24" viewBox="0 0 256 256" version="1.1">
	<path d="M 128.400 34.400 L 125 37.800 125 48.851 C 125 59.698, 123.646 69.585, 121.907 71.436 C 121.423 71.951, 120.044 72.523, 118.842 72.706 C 114.472 73.373, 114 74.670, 114 86.015 C 114 94.667, 114.295 96.899, 115.500 97.362 C 116.325 97.678, 117 99.090, 117 100.500 C 117 101.910, 117.675 103.322, 118.500 103.638 C 121.489 104.785, 119.910 108.229, 113.601 114.321 C 109.075 118.692, 106.882 121.670, 106.107 124.500 C 104.519 130.296, 104.597 201.021, 106.195 204.528 C 108.501 209.589, 110.814 210, 137.027 210 L 161.154 210 164.077 207.077 L 167 204.154 166.978 164.827 C 166.953 120.438, 166.879 119.950, 159.359 114.441 C 157.236 112.886, 154.938 110.940, 154.250 110.116 C 152.550 108.079, 152.675 104.514, 154.500 103 C 155.325 102.315, 156 100.965, 156 100 C 156 99.035, 156.675 97.685, 157.500 97 C 158.644 96.050, 159 93.459, 159 86.069 C 159 75.324, 158.176 73.302, 153.564 72.720 C 149.333 72.186, 148.168 68.029, 148.076 53.151 C 147.991 39.348, 146.874 35.538, 142.080 32.706 C 137.257 29.857, 132.333 30.467, 128.400 34.400 M 133.357 35.001 C 128.869 36.793, 128 39.627, 128 52.479 C 128 59.098, 127.558 66.055, 127.017 67.940 C 126.477 69.825, 126.145 71.478, 126.281 71.614 C 126.646 71.979, 136.813 72.324, 142.104 72.151 L 146.707 72 145.354 66.782 C 144.609 63.912, 144 56.566, 144 50.456 C 144 40.214, 143.825 39.188, 141.750 37.289 C 138.897 34.678, 136.086 33.912, 133.357 35.001 M 117.424 77.338 C 117.141 78.075, 117.043 82.237, 117.205 86.588 L 117.500 94.500 136.250 94.772 L 155 95.044 155 85.522 L 155 76 136.469 76 C 121.913 76, 117.827 76.287, 117.424 77.338 M 120.667 98.667 C 118.736 100.597, 121.383 101, 136 101 C 149.556 101, 152 100.771, 152 99.500 C 152 98.232, 149.630 98, 136.667 98 C 128.233 98, 121.033 98.300, 120.667 98.667 M 123.491 105.410 C 123.313 106.010, 122.907 107.694, 122.589 109.152 C 122.259 110.668, 119.850 113.614, 116.966 116.029 C 108.663 122.980, 109 120.950, 109 164.016 C 109 188.378, 109.374 202.829, 110.035 204.066 C 111.016 205.899, 112.376 206, 135.978 206 C 160.584 206, 160.905 205.973, 162.443 203.777 C 163.784 201.863, 164 196.428, 164 164.593 C 164 129.095, 163.917 127.460, 161.901 123.296 C 160.627 120.664, 158.073 117.770, 155.401 115.932 C 152.981 114.267, 150.993 112.813, 150.985 112.702 C 150.977 112.591, 150.355 110.733, 149.603 108.573 C 148.632 105.782, 147.624 104.601, 146.118 104.490 L 144 104.334 144 142.541 C 144 173.947, 143.733 181.505, 142.500 185 C 141.675 187.338, 141 190.680, 141 192.426 C 141 194.172, 140.460 196.140, 139.800 196.800 C 138.227 198.373, 133.330 198.343, 132.348 196.754 C 130.365 193.546, 129.674 182.520, 129.110 145.082 L 128.500 104.664 126.157 104.493 C 124.869 104.398, 123.669 104.811, 123.491 105.410 M 132.417 104.917 C 132.188 105.146, 132 122.302, 132 143.041 C 132 174.003, 132.268 181.509, 133.500 185 C 134.325 187.338, 135 190.582, 135 192.209 C 135 196.939, 137.385 194.978, 138.391 189.420 C 138.882 186.714, 139.454 166.500, 139.663 144.500 L 140.043 104.500 136.438 104.500 C 134.456 104.500, 132.646 104.688, 132.417 104.917" stroke="none" fill="currentColor" fill-rule="evenodd"/>
</svg>