<svg fill="currentColor" xmlns="http://www.w3.org/2000/svg" width="24" height="24" viewBox="0 0 400 400" version="1.1">
	<path d="M 181.754 51.750 C 180.446 53.221, 180.190 57.154, 180.144 76.458 C 180.094 97.459, 178.827 124.837, 177.388 135.976 C 176.879 139.915, 175.816 141.474, 168.524 148.976 C 155.131 162.754, 156.542 150.723, 156.229 253.829 L 155.958 343.158 159.379 346.579 L 162.800 350 200 350 L 237.200 350 240.621 346.579 L 244.042 343.158 243.771 253.829 L 243.500 164.500 241.326 160.500 C 240.130 158.300, 235.769 153.163, 231.636 149.085 C 225.432 142.964, 223.943 140.869, 223.108 137.085 C 221.457 129.611, 219.924 101.005, 219.858 76.435 C 219.806 57.180, 219.547 53.219, 218.243 51.750 C 216.881 50.215, 214.637 50, 200 50 C 185.364 50, 183.118 50.215, 181.754 51.750 M 197.250 54.727 L 185 55.062 185 58.167 L 185 61.272 196.750 60.591 C 213.380 59.627, 215.175 59.233, 214.804 56.629 C 214.456 54.194, 214.920 54.244, 197.250 54.727 M 198.500 65.155 C 185.173 66.262, 185 66.316, 185 69.402 C 185 71.346, 185.580 71.934, 187.741 72.184 C 191.788 72.651, 192.027 75.845, 188.075 76.635 C 186.384 76.973, 185 77.869, 185 78.625 C 185 79.731, 187.939 80, 200 80 C 212.358 80, 215 79.747, 215 78.566 C 215 77.746, 213.824 76.998, 212.250 76.816 C 208.333 76.366, 208.378 72.629, 212.306 72.178 C 214.881 71.883, 215.087 71.553, 214.806 68.178 C 214.442 63.804, 214.545 63.823, 198.500 65.155 M 193.473 73.044 C 192.169 75.154, 195.215 77, 200 77 C 204.785 77, 207.831 75.154, 206.527 73.044 C 206.172 72.470, 203.235 72, 200 72 C 196.765 72, 193.828 72.470, 193.473 73.044 M 185 92.500 L 185 100 200 100 L 215 100 215 92.500 L 215 85 200 85 L 185 85 185 92.500 M 183.321 122.260 C 182.603 134.384, 181.830 140.410, 180.724 142.510 C 179.857 144.155, 175.915 148.650, 171.963 152.500 C 159.977 164.178, 161.047 154.188, 161.022 254.595 C 161.001 337.717, 161.083 341.766, 162.829 343.345 C 164.458 344.820, 168.529 345, 200.174 345 C 233.311 345, 235.801 344.878, 237.345 343.171 C 238.858 341.499, 239 333.914, 239 254.639 C 239 178.690, 238.808 167.477, 237.454 164.236 C 236.604 162.201, 232.159 156.703, 227.576 152.018 C 217.810 142.036, 217.498 141.107, 216.404 118.750 L 215.730 105 200.036 105 L 184.342 105 183.321 122.260" stroke="none" fill="currentColor" fill-rule="evenodd"/>
</svg>