<svg fill="currentColor" xmlns="http://www.w3.org/2000/svg" width="24" height="24" viewBox="0 0 256 256" version="1.1">
	<path d="M 116.265 33.250 C 115.725 33.938, 115.210 42.368, 115.118 52 C 115.026 61.625, 114.582 74.142, 114.130 79.815 L 113.309 90.130 107.710 95.815 C 104.630 98.942, 101.635 102.767, 101.055 104.315 C 100.361 106.168, 100 126.424, 100 163.565 C 100 218.667, 100.047 220.047, 102 222 C 103.889 223.889, 105.333 224, 128 224 C 150.667 224, 152.111 223.889, 154 222 C 155.954 220.046, 156 218.667, 156 162.640 L 156 105.279 153.523 101.629 C 152.161 99.622, 149.489 96.612, 147.584 94.940 C 145.680 93.268, 143.678 90.460, 143.135 88.700 C 141.853 84.542, 140.897 68.338, 140.824 49.500 C 140.792 41.034, 140.328 33.955, 139.761 33.250 C 139.069 32.390, 135.401 32, 128 32 C 120.585 32, 116.941 32.388, 116.265 33.250 M 118 37 C 118 38.654, 118.667 39, 121.853 39 C 130.235 39, 138 37.729, 138 36.358 C 138 35.305, 135.756 35, 128 35 C 118.667 35, 118 35.133, 118 37 M 124.509 41.896 C 119.891 42.361, 118.441 42.901, 118.185 44.250 C 117.956 45.461, 118.492 46, 119.927 46 C 121.103 46, 122 46.649, 122 47.500 C 122 48.333, 121.111 49, 120 49 C 118.900 49, 118 49.450, 118 50 C 118 50.600, 122 51, 128 51 C 134 51, 138 50.600, 138 50 C 138 49.450, 137.100 49, 136 49 C 134.889 49, 134 48.333, 134 47.500 C 134 46.650, 134.897 46, 136.070 46 C 137.644 46, 138.063 45.461, 137.820 43.750 C 137.457 41.196, 134.931 40.844, 124.509 41.896 M 124 47.500 C 124 48.583, 125.111 49, 128 49 C 130.889 49, 132 48.583, 132 47.500 C 132 46.417, 130.889 46, 128 46 C 125.111 46, 124 46.417, 124 47.500 M 118.702 54.632 C 118.316 55.018, 118 57.283, 118 59.667 L 118 64 128.055 64 L 138.110 64 137.805 59.250 L 137.500 54.500 128.452 54.215 C 123.475 54.058, 119.087 54.246, 118.702 54.632 M 117.545 76.750 C 116.655 90.265, 116.552 90.564, 110.585 96.878 C 107.662 99.970, 104.760 103.483, 104.136 104.684 C 102.468 107.892, 102.529 218.129, 104.200 219.800 C 105.902 221.502, 150.098 221.502, 151.800 219.800 C 153.471 218.129, 153.532 107.892, 151.864 104.684 C 151.240 103.483, 148.348 99.981, 145.438 96.902 C 139.689 90.818, 139.488 90.209, 138.449 75.750 L 137.820 67 128.004 67 L 118.187 67 117.545 76.750" stroke="none" fill="currentColor" fill-rule="evenodd"/>
</svg>