<svg fill="currentColor" xmlns="http://www.w3.org/2000/svg" width="24" height="24" viewBox="0 0 256 256" version="1.1">
	<path d="M 110.664 32.236 C 108.015 34.202, 108.790 39.088, 112 40.664 C 113.375 41.338, 115.287 42.126, 116.250 42.414 C 117.644 42.831, 118 44.068, 118 48.493 C 118 53.500, 117.753 54.144, 115.500 55 C 113.486 55.766, 113 56.636, 113 59.475 C 113 62.203, 112.593 63, 111.200 63 C 107.692 63, 107 65.079, 107 75.618 L 107 85.837 103.750 87.855 C 98.392 91.183, 93.274 97.138, 90.302 103.500 L 87.500 109.500 87.202 154.168 C 86.872 203.710, 86.919 204.131, 93.190 207.997 C 96.368 209.956, 97.785 210.026, 128.828 209.768 L 161.156 209.500 164.578 205.765 L 168 202.029 168 156.550 C 168 117.207, 167.781 110.424, 166.376 106.285 C 164.076 99.511, 159.599 93.427, 153.903 89.335 L 149 85.812 149 76.340 C 149 66.137, 148.051 63, 144.965 63 C 143.452 63, 143 62.316, 143 60.023 C 143 57.951, 142.240 56.548, 140.500 55.408 C 138.302 53.968, 138 53.059, 138 47.885 L 138 42 146.322 42 C 151.322 42, 156.515 42.638, 159.333 43.598 C 163.947 45.170, 164.053 45.158, 166.028 42.848 C 170.978 37.054, 170.780 36.521, 162.500 33.391 C 157.271 31.413, 146.411 30.957, 129.500 32.005 C 125.100 32.277, 119.475 32.134, 117 31.687 C 113.710 31.093, 112.006 31.241, 110.664 32.236 M 112.318 36.500 C 112.493 37.050, 114.500 37.920, 116.779 38.434 L 120.922 39.368 121.211 46.934 L 121.500 54.500 127.750 54.658 L 134 54.815 134 47.467 C 134 42.974, 134.450 39.840, 135.159 39.402 C 137.102 38.201, 156.289 38.572, 159.423 39.871 C 161.840 40.872, 162.606 40.822, 163.846 39.582 C 165.180 38.249, 165.022 37.940, 162.423 36.807 C 158.757 35.207, 111.816 34.920, 112.318 36.500 M 116 60.500 L 116 63 127.500 63 L 139 63 139 60.500 L 139 58 127.500 58 L 116 58 116 60.500 M 110.667 66.667 C 110.300 67.033, 110 71.308, 110 76.167 L 110 85 127.500 85 L 145 85 145 75.500 L 145 66 128.167 66 C 118.908 66, 111.033 66.300, 110.667 66.667 M 106.500 90.160 C 102.576 92.318, 96.785 98.580, 94.164 103.500 L 91.500 108.500 91.212 154.758 L 90.924 201.015 93.417 203.508 L 95.909 206 127.780 206 L 159.651 206 162.076 203.419 L 164.500 200.838 164.500 155.647 L 164.500 110.456 161.166 103.685 C 158.768 98.814, 156.427 95.803, 152.826 92.957 L 147.820 89 128.160 89.030 C 115.804 89.050, 107.757 89.469, 106.500 90.160 M 105.061 98.564 C 99.600 103.498, 96.892 109.523, 96.676 117.219 C 96.536 122.214, 96.807 123.500, 98 123.500 C 99.102 123.500, 99.654 121.909, 100.079 117.500 C 100.835 109.676, 103.302 104.683, 108.602 100.252 C 110.969 98.274, 112.675 96.283, 112.394 95.828 C 111.366 94.166, 108.918 95.079, 105.061 98.564" stroke="none" fill="currentColor" fill-rule="evenodd"/>
</svg>