<svg fill="currentColor" xmlns="http://www.w3.org/2000/svg" width="24" height="24" viewBox="0 0 400 400" version="1.1">
	<path d="M 175.500 49.155 C 172.378 50.862, 171 53.112, 171 56.500 C 171 60.961, 172.851 62.919, 179.049 65.014 L 184.500 66.857 184.788 75.928 C 185.050 84.214, 184.914 85, 183.212 85 C 179.952 85, 177 89.189, 177 93.814 C 177 97.378, 176.693 98, 174.934 98 C 168.491 98, 167.017 102.133, 166.944 120.399 L 166.888 134.500 159.714 139.500 C 151.039 145.546, 143.524 155.464, 139.943 165.590 L 137.500 172.500 137.190 241.500 C 136.975 289.117, 137.216 311.648, 137.966 314.205 C 139.434 319.206, 143.565 323.897, 148.459 326.120 C 152.200 327.820, 156.066 327.956, 200.500 327.956 C 244.934 327.956, 248.800 327.820, 252.541 326.120 C 257.473 323.880, 261.574 319.193, 262.956 314.219 C 263.619 311.833, 263.985 287.025, 263.977 245 C 263.964 172.351, 263.887 171.315, 257.559 158.455 C 253.550 150.305, 246.620 142.651, 238.615 137.530 L 233 133.939 233 118.144 C 233 102.926, 232.915 102.269, 230.686 100.174 C 229.413 98.978, 227.388 98, 226.186 98 C 224.315 98, 224 97.443, 224 94.135 C 224 89.687, 220.884 85, 217.927 85 C 216.162 85, 216 84.216, 216 75.649 L 216 66.297 224.271 65.713 C 233.647 65.052, 244.421 66.159, 250.876 68.448 C 253.282 69.302, 255.815 70, 256.504 70 C 258.356 70, 266.313 59.259, 265.681 57.612 C 264.805 55.329, 250.098 50.221, 240.858 48.991 C 234.545 48.151, 229.354 48.144, 220.912 48.965 C 197.933 51.199, 192.836 51.292, 185.688 49.606 C 177.734 47.731, 178.076 47.746, 175.500 49.155 M 176.622 54.802 C 175.597 56.461, 177.062 58.980, 179.360 59.513 C 180.537 59.786, 183.300 60.364, 185.500 60.797 L 189.500 61.586 189.782 73.293 L 190.063 85 200.532 85 L 211 85 211 73.469 C 211 63.420, 211.225 61.847, 212.750 61.238 C 213.713 60.853, 221.250 60.529, 229.500 60.519 C 241.444 60.504, 245.610 60.874, 249.951 62.336 C 255.168 64.093, 255.457 64.096, 256.701 62.395 C 257.415 61.417, 258 60.290, 258 59.890 C 258 59.490, 254.963 58.114, 251.250 56.832 C 244.992 54.670, 243.261 54.528, 227.500 54.877 C 196.810 55.559, 185.559 55.500, 181.376 54.636 C 178.735 54.091, 177.025 54.151, 176.622 54.802 M 182 94.500 L 182 98 200 98 L 218 98 218 94.500 L 218 91 200 91 L 182 91 182 94.500 M 173.667 103.667 C 173.300 104.033, 173 110.783, 173 118.667 L 173 133 200.500 133 L 228 133 228 119.200 C 228 109.800, 227.617 105.017, 226.800 104.200 C 225.499 102.899, 174.942 102.392, 173.667 103.667 M 165.946 141.876 C 156.598 147.923, 149.312 157.002, 145.369 167.516 C 143.620 172.181, 143.482 176.962, 143.224 242.249 C 142.918 319.389, 142.653 315.988, 149.299 320.040 C 152.356 321.905, 154.653 321.993, 200.500 321.993 C 246.347 321.993, 248.644 321.905, 251.701 320.040 C 258.252 316.046, 258 319.056, 258 244.944 C 258 171.968, 257.991 171.836, 252.325 160.654 C 249.234 154.555, 241.390 146.101, 235.044 142.028 L 230.325 139 200.358 139 L 170.392 139 165.946 141.876 M 167.403 151.777 C 158.909 158.492, 153.929 166.521, 152.091 176.465 C 149.867 188.497, 151.134 195.037, 155.373 193.410 C 156.652 192.920, 157 191.350, 157 186.075 C 157 173.446, 162.045 162.908, 171.500 155.790 C 174.250 153.720, 176.500 151.233, 176.500 150.263 C 176.500 147.063, 172.529 147.724, 167.403 151.777" stroke="none" fill="currentColor" fill-rule="evenodd"/>
</svg>