<svg fill="currentColor" xmlns="http://www.w3.org/2000/svg" width="24" height="24" viewBox="0 0 256 256" version="1.1">
	<path d="M 106.861 49.315 C 90.797 54.790, 81.158 69.355, 77.489 93.699 C 76.677 99.089, 76.009 106.243, 76.006 109.595 C 76.001 114.415, 75.582 116.069, 74 117.500 C 72.900 118.495, 72 120.520, 72 122 C 72 127.339, 78.361 129.775, 83.503 126.406 C 87.365 123.876, 88.384 125.167, 85.564 129.019 C 79.310 137.563, 79.526 135.812, 79.208 180.348 C 78.876 226.677, 79.180 229.317, 85.483 234.851 C 91.183 239.855, 97.383 241.246, 116.248 241.752 C 141.897 242.440, 151.950 239.531, 156.750 230.030 C 158.981 225.615, 159 225.205, 158.978 182.538 C 158.957 141.935, 158.846 139.274, 157.007 135.500 C 155.935 133.300, 154.063 130.270, 152.846 128.766 C 150.073 125.339, 151.151 124.067, 154.935 126.303 C 158.759 128.561, 162.553 128.447, 165 126 C 167.692 123.308, 167.518 120.427, 164.481 117.390 C 163.095 116.004, 162.200 114.485, 162.492 114.013 C 163.386 112.566, 161.211 91.758, 159.399 84.421 C 155.821 69.937, 149.598 59.680, 140.759 53.695 C 130.610 46.824, 118.687 45.284, 106.861 49.315 M 107.461 52.748 C 97.542 57.050, 92.667 61.730, 87.565 71.846 C 83.476 79.954, 80.933 91.211, 80.298 104.008 L 79.728 115.516 82.429 116.962 C 84.785 118.223, 85.244 118.223, 86.023 116.962 C 86.515 116.167, 86.554 115.154, 86.112 114.712 C 84.755 113.355, 86.083 98.680, 87.732 96.798 C 90.412 93.739, 99.489 92.515, 119.500 92.515 C 148.897 92.515, 153.798 94.347, 152.778 104.954 C 152.518 107.661, 152.655 110.442, 153.083 111.134 C 153.511 111.826, 153.443 113.171, 152.934 114.124 C 152.424 115.076, 152.263 116.523, 152.577 117.339 C 153.072 118.631, 153.538 118.608, 156.176 117.162 L 159.206 115.500 158.658 105.500 C 157.217 79.208, 148.973 61.653, 134.592 54.254 C 127.876 50.798, 113.762 50.015, 107.461 52.748 M 97.652 97.049 C 85.319 99.118, 94.824 100.508, 121 100.463 C 145.023 100.422, 152.532 99.169, 140.898 97.143 C 133.539 95.861, 105.098 95.799, 97.652 97.049 M 90 102.830 C 90 104.320, 101.634 105.998, 112.082 106.015 C 121.795 106.031, 124.837 106.836, 123.480 109.033 C 122.605 110.449, 100.525 109.775, 93.757 108.126 C 91.698 107.624, 90.231 107.565, 90.496 107.994 C 92.714 111.582, 132.707 112.310, 145.046 108.988 C 148.547 108.045, 149 107.576, 149 104.894 C 149 102.468, 148.652 101.974, 147.250 102.411 C 136.834 105.657, 101.992 105.671, 91.792 102.434 C 90.806 102.121, 90 102.299, 90 102.830 M 91.650 113.457 C 96.217 115.584, 115.952 117.321, 127 116.568 C 138.345 115.795, 147.811 114.114, 148.674 112.719 C 149.066 112.084, 148.366 111.942, 146.786 112.339 C 133.100 115.774, 109.008 115.835, 91.113 112.479 C 88.781 112.042, 88.839 112.147, 91.650 113.457 M 89.595 117.846 C 88.775 119.173, 90.948 120.608, 95 121.417 C 112.490 124.909, 150.269 122.965, 148.677 118.655 C 148.442 118.020, 147.801 117.593, 147.252 117.708 C 131.999 120.882, 102.298 120.768, 91.987 117.496 C 90.987 117.178, 89.910 117.336, 89.595 117.846 M 79.570 122.366 C 78.970 124.491, 78.961 124.492, 77.394 122.500 C 75.829 120.511, 75.822 120.511, 76.172 122.489 C 76.640 125.137, 78.961 125.403, 81.877 123.142 C 84.192 121.348, 84.201 121.286, 82.213 120.766 C 80.727 120.377, 80.009 120.812, 79.570 122.366 M 156.250 120.662 C 154.205 121.487, 154.813 122.680, 157.940 123.975 C 161.234 125.340, 163.008 124.712, 162.985 122.191 C 162.972 120.825, 162.800 120.768, 162.086 121.896 C 161.582 122.692, 160.487 123.017, 159.538 122.653 C 158.622 122.302, 158.153 121.561, 158.496 121.007 C 159.151 119.946, 158.335 119.821, 156.250 120.662 M 91.549 124.784 C 91.247 125.086, 91 126.003, 91 126.822 C 91 127.641, 89.852 129.816, 88.449 131.656 C 82.990 138.813, 83 138.720, 83 183.067 C 83 228.144, 83.077 228.782, 89.001 233 C 98.457 239.734, 132.283 240.806, 146.211 234.814 C 149.388 233.447, 151.740 231.546, 153.243 229.130 C 155.473 225.543, 155.504 225.023, 155.805 185.500 C 156.134 142.294, 155.836 138.967, 151.104 133 C 149.578 131.075, 148.033 128.310, 147.672 126.855 C 147.031 124.278, 146.904 124.238, 142.757 125.310 C 137.307 126.720, 101.862 126.713, 96.299 125.301 C 93.989 124.714, 91.851 124.482, 91.549 124.784 M 92.776 134.750 C 88.645 139.460, 88 142.529, 88 157.450 C 88 169.286, 88.262 172, 89.406 172 C 90.533 172, 90.881 169.154, 91.156 157.674 C 91.484 144, 91.625 143.160, 94.250 139.196 C 95.763 136.912, 97 134.583, 97 134.021 C 97 132.397, 94.454 132.836, 92.776 134.750 M 100.333 221.442 C 92.225 223.281, 89.524 224.722, 90.955 226.446 C 91.847 227.521, 92.717 227.519, 95.867 226.434 C 106.628 222.726, 126.901 222.255, 139.076 225.430 C 142.142 226.230, 145.265 227.022, 146.016 227.192 C 146.767 227.361, 147.548 226.738, 147.753 225.807 C 148.034 224.526, 146.834 223.706, 142.812 222.434 C 135.490 220.117, 108.913 219.496, 100.333 221.442" stroke="none" fill="currentColor" fill-rule="evenodd"/>
</svg>