<svg fill="currentColor" xmlns="http://www.w3.org/2000/svg" width="24" height="24" viewBox="0 0 400 400" version="1.1">
	<path d="M 180.500 73.610 C 155.346 77.167, 136.701 93.994, 127.480 121.464 C 123.017 134.760, 120.952 147.243, 120.312 164.790 C 119.784 179.256, 119.510 181.192, 117.869 182.070 C 112.529 184.928, 111.850 194.164, 116.700 197.978 C 121.232 201.544, 123.731 201.579, 130.284 198.172 C 138.945 193.669, 139.952 195.419, 133.374 203.541 C 131.574 205.763, 128.958 210.038, 127.561 213.041 L 125.020 218.500 125.010 284.712 C 125 348.969, 125.060 351.086, 127.044 356.389 C 129.475 362.886, 135.142 368.904, 141.764 372.024 C 151.607 376.660, 163.633 378.352, 187 378.391 C 218.387 378.443, 233.147 374.989, 241.842 365.556 C 249.779 356.945, 249.500 359.883, 249.500 285 L 249.500 218.500 246.779 212.693 C 245.283 209.500, 242.470 205.031, 240.529 202.763 C 234.679 195.928, 236.841 193.064, 244.061 198.086 C 247.647 200.580, 251.135 201.279, 254.193 200.117 C 261.480 197.346, 263.261 189.645, 258 183.653 C 255.277 180.551, 255 179.589, 255 173.224 C 255 156.048, 250.615 130.052, 245.529 117.074 C 237.203 95.828, 223.909 82.217, 205.941 76.541 C 198.367 74.148, 186.423 72.772, 180.500 73.610 M 175 80.508 C 155.832 85.779, 142.215 98.738, 134.554 119 C 129.697 131.844, 126.983 145.882, 125.441 166.122 C 124.540 177.959, 125.254 180.579, 130.045 183.023 C 132.176 184.110, 134.111 185, 134.344 185 C 135.404 185, 135.803 180.467, 134.843 179.311 C 134.249 178.595, 134.043 176.564, 134.381 174.759 C 134.718 172.967, 134.973 167.650, 134.950 162.944 C 134.914 155.851, 135.250 153.952, 136.913 151.837 C 141.443 146.078, 161.098 143.510, 194.500 144.311 C 223.650 145.011, 236.764 147.527, 238.417 152.739 C 238.724 153.708, 239.032 158.100, 239.101 162.500 C 239.170 166.900, 239.679 171.735, 240.232 173.244 C 241.012 175.372, 240.867 176.553, 239.589 178.504 C 238.330 180.427, 238.192 181.490, 239.005 183.010 C 240.318 185.463, 240.852 185.462, 244 183 C 245.375 181.924, 247.063 181.034, 247.750 181.022 C 249.518 180.991, 249.390 165.054, 247.507 150.801 C 242.542 113.222, 228.746 90.858, 205.243 82.288 C 196.579 79.129, 182.936 78.326, 175 80.508 M 168.500 150.027 C 155.786 151.155, 145 152.957, 145 153.953 C 145 156.527, 181.219 158.991, 202.500 157.865 C 215.663 157.168, 230 155.147, 230 153.988 C 230 152.581, 209.418 150.078, 194 149.610 C 185.475 149.352, 174 149.539, 168.500 150.027 M 227.500 160.675 C 212.738 164.523, 168.674 165.026, 151.164 161.547 C 142.323 159.790, 138.535 159.982, 143.464 161.937 C 148.969 164.121, 165.421 165.988, 179.215 165.994 C 191.523 165.999, 193.031 166.189, 193.918 167.847 C 195.744 171.259, 193.345 172.001, 180.550 171.980 C 170.063 171.963, 154.099 170.456, 144.500 168.577 L 141.500 167.989 144.702 169.478 C 146.464 170.297, 153.439 171.699, 160.202 172.594 C 182.271 175.515, 224.705 173.044, 231.750 168.428 C 233.357 167.375, 234 165.977, 234 163.536 C 234 161.656, 233.662 159.950, 233.250 159.745 C 232.838 159.540, 230.250 159.959, 227.500 160.675 M 140.601 175.915 C 147.337 183.178, 218.904 184.009, 232.043 176.977 C 235.727 175.005, 233.391 174.751, 226.320 176.354 C 205.322 181.115, 162.011 180.616, 142 175.382 C 140.099 174.885, 139.764 175.012, 140.601 175.915 M 140.999 184.501 C 139.459 186.356, 141.708 187.730, 149.069 189.431 C 165.656 193.263, 198.890 193.823, 219.500 190.616 C 230.811 188.856, 234.262 187.559, 233.784 185.247 C 233.386 183.320, 233.409 183.320, 221.500 185.549 C 203.326 188.950, 164.111 188.402, 147.378 184.513 C 143.133 183.526, 141.810 183.524, 140.999 184.501 M 246 188.500 C 245.315 189.325, 244.023 190.007, 243.128 190.015 C 241.528 190.029, 242.818 190.966, 248.828 194.156 C 251.929 195.803, 254.432 194.206, 254.718 190.399 L 254.936 187.500 253.885 190.250 C 253.306 191.762, 252.251 193, 251.539 193 C 249.634 193, 247.688 190.256, 248.357 188.513 C 249.104 186.565, 247.612 186.557, 246 188.500 M 119.040 190.050 C 118.957 195.313, 122.861 196.391, 128.398 192.634 L 131.884 190.268 129.395 189.134 C 126.161 187.661, 126.316 187.605, 125.589 190.500 C 124.763 193.794, 122.432 193.678, 120.572 190.250 L 119.080 187.500 119.040 190.050 M 143.005 197.981 C 142.462 200, 140.193 204.198, 137.963 207.312 C 130.564 217.644, 131 212.742, 131 285.652 C 131 350.044, 131.042 351.455, 133.068 355.640 C 137.432 364.655, 146.254 369.196, 164 371.562 C 185.356 374.408, 214.748 372.685, 227.734 367.826 C 235.153 365.051, 240.487 359.571, 242.496 352.663 C 243.870 347.936, 244.034 339.060, 243.785 282.873 C 243.466 210.756, 244.134 217.233, 235.891 206.419 C 233.761 203.625, 231.732 199.912, 231.384 198.169 C 230.643 194.464, 231.513 194.562, 217.559 196.609 C 203.961 198.603, 161.658 198.055, 150.747 195.743 L 143.993 194.312 143.005 197.981 M 144.541 211.750 C 138.533 219.955, 138 222.834, 138 247.071 C 138 269.542, 138.323 271.271, 142.091 268.945 C 143.221 268.247, 143.544 263.810, 143.723 246.550 C 143.964 223.267, 144.031 222.937, 150.436 213.499 C 155.494 206.045, 149.928 204.394, 144.541 211.750 M 173.500 343.575 C 153.951 346.313, 143.304 349.045, 142.335 351.569 C 142.028 352.370, 142.289 353.644, 142.916 354.399 C 143.876 355.556, 145.039 355.466, 150.278 353.830 C 170.849 347.407, 205.563 347.485, 224.487 353.996 C 230.076 355.919, 232.417 355.406, 231.836 352.388 C 230.955 347.812, 214.483 344.116, 192.500 343.559 C 183.700 343.337, 175.150 343.344, 173.500 343.575" stroke="none" fill="currentColor" fill-rule="evenodd"/>
</svg>