<svg fill="currentColor" xmlns="http://www.w3.org/2000/svg" width="24" height="24" viewBox="0 0 400 400" version="1.1">
	<path d="M 188.382 81.403 C 178.956 85.791, 177.924 90.455, 183.549 103.247 C 186.885 110.834, 189.952 121.320, 189.985 125.250 C 189.993 126.213, 189.357 127, 188.571 127 C 186.387 127, 184 129.869, 184 132.494 C 184 134.265, 183.189 135.112, 180.711 135.930 C 175.205 137.748, 174.001 141.105, 173.996 154.654 L 173.991 166.500 166.728 170.229 C 150.346 178.638, 139.059 191.670, 134.462 207.482 C 131.915 216.245, 132.859 235.396, 136.430 247.398 C 143.031 269.586, 158.767 301.261, 168.137 311.222 L 171.774 315.088 201.002 314.794 L 230.231 314.500 233.366 310.864 C 240.754 302.293, 255.619 273.847, 261.366 257.281 C 269.816 232.925, 270.244 212.253, 262.611 197.233 C 257.151 186.489, 246.148 176.108, 233.507 169.773 C 230.203 168.117, 227.309 166.588, 227.075 166.373 C 226.842 166.159, 226.759 161.248, 226.892 155.460 C 227.029 149.511, 226.634 143.420, 225.984 141.450 C 224.855 138.032, 220.891 135, 217.550 135 C 216.447 135, 216 133.996, 216 131.519 C 216 128.640, 215.568 127.930, 213.500 127.411 C 208.676 126.200, 211.073 125.465, 218.606 125.845 C 225.984 126.218, 226.318 126.346, 229.727 130.120 C 234.270 135.148, 245.677 140.757, 254.252 142.178 C 279.048 146.286, 300.484 127.793, 292.129 109.500 C 286.213 96.547, 267.488 89.193, 251.113 93.391 C 242.677 95.554, 233.786 100.387, 229.484 105.149 C 226.250 108.729, 225.618 109, 220.503 109 C 217.476 109, 215 108.765, 215 108.478 C 215 108.191, 216.350 104.979, 218 101.340 C 219.650 97.701, 221 93.638, 221 92.312 C 221 81.367, 202.061 75.033, 188.382 81.403 M 195.123 84.991 C 191.003 85.977, 186.617 89.115, 186.168 91.399 C 185.986 92.327, 187.501 97.196, 189.535 102.220 C 191.569 107.243, 193.927 114.874, 194.774 119.177 L 196.315 127 200.408 126.996 L 204.500 126.993 206.695 116.911 C 207.903 111.367, 210.265 103.893, 211.945 100.303 C 213.625 96.713, 215 92.996, 215 92.043 C 215 87.107, 203.431 83.003, 195.123 84.991 M 252.500 98.870 C 250.850 99.307, 247.275 100.653, 244.555 101.862 C 225.549 110.311, 225.215 123.684, 243.785 132.707 C 250.933 136.181, 252.161 136.458, 260.500 136.478 C 267.813 136.496, 270.437 136.068, 274.500 134.196 C 292.336 125.979, 292.620 109.801, 275.082 101.004 C 270.276 98.593, 257.952 97.429, 252.500 98.870 M 212.607 116.582 C 211.441 119.620, 212.041 120, 218 120 C 223.733 120, 224 119.889, 224 117.500 C 224 115.142, 223.693 115, 218.607 115 C 214.612 115, 213.057 115.410, 212.607 116.582 M 190.700 132.633 C 188.818 134.515, 190.842 135, 200.583 135 C 208.604 135, 211.066 134.697, 210.752 133.750 C 210.299 132.384, 191.971 131.363, 190.700 132.633 M 181.200 142.200 C 180.408 142.992, 180 147.249, 180 154.721 L 180 166.041 200.250 165.771 L 220.500 165.500 220.785 154.645 C 220.972 147.498, 220.674 143.313, 219.912 142.395 C 218.359 140.523, 183.054 140.346, 181.200 142.200 M 219 171.711 C 219 171.987, 220.367 173.939, 222.039 176.049 C 226.068 181.137, 231.620 193.307, 233.497 201.168 C 236.021 211.737, 236.467 227.056, 234.617 239.585 C 232.873 251.391, 229.062 267.183, 226.034 275.152 C 225.021 277.819, 224.550 280, 224.988 280 C 225.426 280, 228.318 277.264, 231.414 273.920 C 242.477 261.970, 252.012 236.518, 251.987 219 C 251.963 202.344, 244.552 187.070, 231.672 177.133 C 226.908 173.457, 219 170.074, 219 171.711 M 171.025 176.142 C 160.375 183.254, 152.618 195.289, 149.953 208.834 C 146.016 228.844, 155.887 260.599, 170.599 275.250 C 173.222 277.863, 175.692 280, 176.088 280 C 176.484 280, 175.925 277.675, 174.845 274.834 C 173.765 271.993, 171.591 264.456, 170.014 258.084 C 161.433 223.433, 164.233 196.957, 178.616 176.750 C 181.980 172.023, 181.985 172, 179.612 172 C 178.301 172, 174.436 173.864, 171.025 176.142 M 185.946 176.750 C 181.133 182.164, 175.816 192.697, 173.453 201.500 C 169.305 216.954, 170.820 240.430, 177.471 263.759 C 182.238 280.478, 183.656 283.234, 188 284.222 C 192.516 285.250, 208.474 285.252, 213 284.225 C 216.307 283.474, 216.680 282.950, 219.763 274.702 C 229.436 248.834, 232.466 220.146, 227.496 201.500 C 225.203 192.896, 219.793 182.183, 214.981 176.716 L 210.830 172 200.500 172 L 190.170 172 185.946 176.750 M 253.549 196.750 C 261.175 215.680, 258.506 238.882, 245.930 263 C 240.378 273.648, 233.944 281.420, 227.757 284.954 C 214.382 292.593, 188.843 293.062, 174.855 285.926 C 159.689 278.189, 145.052 249.195, 143.340 223.500 C 142.701 213.909, 144.537 201.729, 147.480 196.038 C 149.978 191.209, 149.198 191.189, 145.999 196 C 142.667 201.012, 139.447 210.051, 138.444 217.215 C 135.946 235.047, 149.023 271.921, 168.602 302.250 L 172.960 309 200.514 309 L 228.069 309 233.065 301.250 C 239.755 290.871, 251.021 268.495, 254.839 258 C 264.707 230.881, 264.700 211.259, 254.818 195.750 C 253.153 193.137, 251.666 191, 251.512 191 C 251.358 191, 252.275 193.588, 253.549 196.750" stroke="none" fill="currentColor" fill-rule="evenodd"/>
</svg>