<svg fill="currentColor" xmlns="http://www.w3.org/2000/svg" width="24" height="24" viewBox="0 0 256 256" version="1.1">
	<path d="M 122.469 51.018 C 118.076 52.360, 115 55.613, 115 58.918 C 115 60.480, 116.094 64.175, 117.431 67.129 C 121.187 75.425, 121.621 79.379, 119.057 81.943 C 117.886 83.114, 117.197 84.510, 117.527 85.044 C 117.857 85.577, 117.311 86.304, 116.313 86.659 C 111.775 88.273, 111 89.985, 110.998 98.405 L 110.995 106.500 105.668 109.283 C 99.155 112.686, 90.708 120.906, 88.022 126.455 C 83.579 135.632, 83.430 147.091, 87.572 161 C 89.873 168.728, 97.896 185.443, 103.353 193.879 L 107.960 201 127.230 200.985 C 137.828 200.976, 147.003 200.639, 147.617 200.235 C 151.235 197.855, 163.326 174.741, 167.617 162 C 170.042 154.801, 170.482 151.893, 170.490 143 C 170.499 133.518, 170.229 131.948, 167.706 126.810 C 164.478 120.237, 155.908 111.885, 149.060 108.638 L 144.500 106.476 144.206 98.038 C 143.900 89.236, 143.023 87, 139.878 87 C 138.626 87, 138 86.287, 138 84.860 C 138 83.683, 137.213 82.123, 136.250 81.392 C 134.713 80.225, 135.054 80.060, 139.063 80.032 C 142.885 80.005, 144.103 80.502, 146.563 83.092 C 148.178 84.792, 151.300 87.109, 153.500 88.241 C 158.395 90.760, 168.898 91.656, 174.803 90.059 C 180.352 88.557, 186.491 82.529, 187.398 77.690 C 189.178 68.203, 178.845 59, 166.412 59 C 160.513 59, 151.530 62.526, 146.998 66.621 C 144.372 68.993, 142.293 70, 140.022 70 C 137.322 70, 136.910 69.710, 137.533 68.250 C 140.795 60.605, 141.435 57.913, 140.388 56.247 C 137.655 51.902, 128.411 49.204, 122.469 51.018 M 122.465 54.952 C 118.143 56.703, 117.838 58.257, 120.520 64.857 C 121.899 68.250, 123.508 73.270, 124.096 76.013 C 125.069 80.548, 125.419 81, 127.954 81 C 130.524 81, 130.792 80.628, 131.382 76.250 C 131.733 73.638, 133.141 69.093, 134.511 66.151 C 135.880 63.209, 137 59.958, 137 58.926 C 137 55.209, 127.942 52.732, 122.465 54.952 M 156.256 64.970 C 146.563 69.370, 144.044 76.330, 150.250 81.563 C 155.030 85.593, 159.755 87.291, 166.500 87.402 C 177.076 87.575, 185.211 80.791, 183.542 73.192 C 181.648 64.570, 166.917 60.131, 156.256 64.970 M 135.607 74.582 C 134.687 76.979, 134.716 77, 139 77 C 143.450 77, 144.657 74.677, 140.750 73.630 C 137.250 72.692, 136.262 72.875, 135.607 74.582 M 121.500 86 C 121.840 86.550, 124.791 87, 128.059 87 C 131.353 87, 134 86.554, 134 86 C 134 85.435, 131.147 85, 127.441 85 C 123.323 85, 121.112 85.372, 121.500 86 M 115.696 90.637 C 115.313 91.020, 115 94.633, 115 98.667 L 115 106 128.042 106 L 141.084 106 140.792 98.250 L 140.500 90.500 128.446 90.221 C 121.816 90.067, 116.079 90.255, 115.696 90.637 M 107.309 113.850 C 93.483 124.779, 91.230 144.626, 101.446 165.500 C 105.095 172.954, 112.982 181.930, 111.553 177 C 106.603 159.932, 105.754 155.072, 105.700 143.500 C 105.636 129.886, 107.437 122.587, 112.832 114.594 C 115.571 110.536, 115.714 110, 114.056 110 C 113.024 110, 109.988 111.732, 107.309 113.850 M 118.434 113.250 C 114.798 117.556, 111.307 125.220, 109.893 132 C 108.195 140.145, 109.372 155.702, 112.543 167 C 116.534 181.226, 116.863 181.679, 123.723 182.429 C 126.900 182.776, 131.506 182.700, 133.957 182.260 L 138.414 181.459 141.625 171.493 C 146.031 157.815, 147.678 144.338, 146.109 134.802 C 144.814 126.933, 141.428 118.561, 137.409 113.292 C 135 110.133, 134.621 110, 128.038 110 C 121.528 110, 121.038 110.166, 118.434 113.250 M 141.410 112.250 C 143.945 115.697, 147.894 124.585, 148.978 129.285 C 151.440 139.952, 149.648 159.990, 145.034 173.403 C 143.974 176.481, 143.501 179, 143.981 179 C 145.404 179, 150.671 172.095, 153.974 165.898 C 157.512 159.259, 161 146.624, 161 140.445 C 161 138.116, 160.055 133.152, 158.900 129.413 C 157.117 123.640, 155.851 121.666, 150.493 116.308 C 146.547 112.362, 143.356 110, 141.971 110 C 139.851 110, 139.827 110.096, 141.410 112.250 M 91.321 128.611 C 86.224 139.744, 87.492 152.797, 95.458 171.179 C 100.561 182.954, 109.084 196.985, 111.494 197.578 C 112.597 197.850, 120.694 197.943, 129.487 197.786 L 145.474 197.500 148.799 192.500 C 154.316 184.202, 162.792 166.002, 165.083 157.537 C 168.622 144.460, 167.790 132.233, 162.937 125.994 L 160.997 123.500 162.589 128 C 166.131 138.014, 164.006 154.081, 157.405 167.188 C 149.919 182.054, 142.441 186.482, 126 185.784 C 118.846 185.481, 115.495 184.858, 112.432 183.263 C 103.997 178.871, 96.560 167.418, 92.932 153.234 C 90.496 143.709, 90.486 136.831, 92.895 129.089 C 93.937 125.740, 94.588 123, 94.340 123 C 94.092 123, 92.733 125.525, 91.321 128.611" stroke="none" fill="currentColor" fill-rule="evenodd"/>
</svg>