<svg fill="currentColor" xmlns="http://www.w3.org/2000/svg" width="24" height="24" viewBox="0 0 256 256" version="1.1">
	<path d="M 129.378 47.382 C 125.367 49.198, 123 52.617, 123 56.594 C 123 59.637, 122.825 59.766, 117.750 60.437 C 102.074 62.512, 99 64.312, 99 71.419 C 99 74.410, 97.870 78.195, 95.500 83.140 L 92 90.444 92 148.648 L 92 206.852 98.250 213.294 C 101.688 216.837, 105.462 220.234, 106.638 220.843 C 110.565 222.877, 126.143 225, 136.881 224.965 C 154.632 224.907, 168.704 221.477, 171.126 216.620 C 171.707 215.454, 174.054 212.849, 176.341 210.831 L 180.500 207.162 180.500 148.331 L 180.500 89.500 177.032 83.500 C 174.509 79.134, 173.420 75.866, 173.032 71.500 C 172.526 65.797, 172.321 65.413, 168.885 63.732 C 166.896 62.760, 161.609 61.431, 157.135 60.778 L 149 59.593 149 55.983 C 149 50.530, 144.637 46.774, 137.772 46.318 C 134.631 46.109, 131.238 46.539, 129.378 47.382 M 132.772 49.714 C 129.629 50.192, 125.759 54.562, 126.402 56.907 C 126.643 57.783, 127.156 61.650, 127.542 65.500 L 128.245 72.500 129.818 69.220 C 132.525 63.576, 140.074 63.569, 142.446 69.209 L 143.765 72.348 144.356 68.424 C 146.631 53.308, 146.276 51.726, 140.238 50.049 C 138.182 49.478, 136.275 49.076, 136 49.155 C 135.725 49.235, 134.272 49.486, 132.772 49.714 M 129.452 54.433 C 125.446 60.546, 135.135 65.828, 141.365 60.927 C 146.653 56.768, 143.761 52, 135.952 52 C 131.859 52, 130.782 52.403, 129.452 54.433 M 132 57 C 132 58.667, 132.667 59, 136 59 C 139.333 59, 140 58.667, 140 57 C 140 55.333, 139.333 55, 136 55 C 132.667 55, 132 55.333, 132 57 M 114.500 64.494 C 110.650 65.212, 106.375 66.247, 105 66.796 L 102.500 67.794 105.132 68.827 C 108.208 70.035, 123.802 72.541, 124.389 71.922 C 125.150 71.119, 123.489 63.663, 122.496 63.427 C 121.948 63.297, 118.350 63.777, 114.500 64.494 M 148.648 63.685 C 148.292 64.042, 148 66.058, 148 68.167 C 148 71.686, 148.225 71.999, 150.750 71.983 C 154.734 71.957, 167.210 69.190, 168.314 68.086 C 169.295 67.105, 164.894 65.647, 157.500 64.503 C 155.300 64.163, 152.554 63.694, 151.398 63.461 C 150.243 63.227, 149.005 63.328, 148.648 63.685 M 133 70 C 132.411 71.100, 132.058 72.035, 132.215 72.077 C 132.372 72.119, 134.005 72.232, 135.845 72.327 C 139.665 72.525, 140.711 71.562, 138.964 69.456 C 137.243 67.383, 134.255 67.656, 133 70 M 103.382 73.488 C 107.268 76.431, 116.228 77.500, 137 77.500 C 153.760 77.500, 158.540 77.178, 163.199 75.737 C 166.334 74.767, 169.220 73.453, 169.613 72.817 C 170.110 72.014, 169.743 71.887, 168.414 72.403 C 159.265 75.953, 120.569 76.812, 109.169 73.718 C 101.585 71.660, 100.932 71.634, 103.382 73.488 M 99.024 83.905 C 96.063 89.910, 95.951 90.491, 97.530 91.645 C 102.579 95.338, 127.942 98.388, 145.379 97.400 C 155.271 96.840, 157.180 96.959, 156.796 98.114 C 156.118 100.153, 151.985 100.750, 137.628 100.882 C 124.065 101.006, 105.987 98.857, 100.176 96.429 C 98.295 95.643, 96.361 95, 95.878 95 C 94.623 95, 94.739 203.644, 95.996 205.992 C 98.547 210.760, 116.058 214.278, 136.997 214.232 C 151.654 214.200, 160.650 213.097, 168.953 210.315 C 177.717 207.379, 177 212.720, 177 150.345 C 177 119.905, 176.830 95, 176.622 95 C 176.414 95, 174.629 95.675, 172.654 96.500 C 168.126 98.392, 166 98.405, 166 96.540 C 166 95.703, 167.710 94.568, 170.012 93.878 C 176.495 91.936, 176.849 90.781, 173.180 83.558 L 169.987 77.272 163.244 79.280 C 153.463 82.193, 119.954 82.240, 109.363 79.355 L 102.226 77.412 99.024 83.905 M 104 214.973 C 104 215.361, 105.237 216.254, 106.750 216.958 C 118.384 222.368, 147.781 223.076, 162.038 218.289 C 169.809 215.680, 169.624 213.856, 161.792 215.853 C 153.001 218.094, 119.184 218.085, 110.250 215.839 C 106.813 214.975, 104 214.585, 104 214.973" stroke="none" fill="currentColor" fill-rule="evenodd"/>
</svg>