<svg fill="currentColor" xmlns="http://www.w3.org/2000/svg" width="24" height="24" viewBox="0 0 400 400" version="1.1">
	<path d="M 204.685 72.958 C 197.039 75.413, 192.497 82.038, 193.172 89.751 L 193.500 93.499 186 94.226 C 175.333 95.261, 165.143 97.685, 160.543 100.281 C 157.364 102.076, 156.418 103.300, 155.731 106.508 C 155.260 108.703, 155.135 112.196, 155.453 114.270 C 155.948 117.507, 155.215 119.604, 150.265 129.107 L 144.500 140.174 144.234 230.082 C 143.938 330.341, 143.559 324.694, 150.915 329.562 C 153.154 331.044, 156.355 334.481, 158.028 337.200 C 160.387 341.033, 162.239 342.672, 166.285 344.503 C 182.565 351.871, 220.261 353.952, 245.500 348.877 C 261.007 345.758, 266.506 342.844, 270.075 335.851 C 271.100 333.844, 273.573 331.191, 275.572 329.956 C 277.571 328.720, 280.058 326.312, 281.099 324.605 C 282.920 321.619, 282.993 318.044, 282.996 231.477 L 283 141.454 277.091 129.764 C 271.422 118.546, 271.204 117.837, 271.715 112.203 C 272.399 104.660, 271.162 102.421, 264.664 99.448 C 259.787 97.216, 246.321 94.408, 237.500 93.783 L 233.500 93.500 233.822 89.391 C 234.281 83.543, 231.887 78.616, 227.025 75.398 C 223.585 73.121, 221.603 72.612, 215.196 72.359 C 210.963 72.191, 206.233 72.461, 204.685 72.958 M 207.550 78.126 C 203.215 79.142, 200.190 81.403, 198.998 84.519 C 198.341 86.236, 200.349 109.537, 201.409 112.500 C 201.606 113.050, 202.087 112.600, 202.477 111.500 C 202.868 110.400, 203.614 108.348, 204.136 106.941 C 205.331 103.717, 209.844 101, 214.004 101 C 218.082 101, 224 106.566, 224 110.400 C 224 113.254, 225.973 114.075, 226.043 111.250 C 226.067 110.287, 226.699 104.355, 227.449 98.066 C 228.198 91.777, 228.455 85.702, 228.020 84.566 C 226.847 81.499, 223.989 79.333, 219.500 78.105 C 214.888 76.844, 213.009 76.847, 207.550 78.126 M 207.500 81.529 C 205.300 82.321, 203.442 82.977, 203.371 82.985 C 203.301 82.993, 202.683 84.350, 202 86 C 199.331 92.443, 204.664 98, 213.516 98 C 221.196 98, 224.915 95.020, 224.968 88.821 C 225.006 84.458, 223.257 82.443, 218.216 81.043 C 213.473 79.726, 212.365 79.776, 207.500 81.529 M 209.250 86.031 C 206.601 87.096, 206.143 91.457, 208.582 92.393 C 211.273 93.426, 217.538 93.062, 218.800 91.800 C 223.013 87.587, 215.968 83.331, 209.250 86.031 M 180.921 100.482 C 171.206 102.118, 162 104.794, 162 105.981 C 162 107.660, 179.796 111.505, 190.494 112.137 L 195.487 112.432 195.206 108.466 C 195.051 106.285, 194.680 103.263, 194.383 101.750 C 193.755 98.562, 192.834 98.475, 180.921 100.482 M 232.625 102.125 C 232.281 103.844, 232 106.903, 232 108.924 C 232 112.565, 232.034 112.595, 235.750 112.249 C 249.279 110.986, 265 107.578, 265 105.907 C 265 104.707, 255.893 102.170, 245.500 100.476 C 233.329 98.491, 233.352 98.488, 232.625 102.125 M 209.655 107.829 C 206.354 111.477, 207.486 113, 213.500 113 C 218.179 113, 219 112.725, 219 111.155 C 219 108.791, 215.928 106, 213.326 106 C 212.217 106, 210.565 106.823, 209.655 107.829 M 161 113.496 C 161 116.792, 179.384 120.818, 199.477 121.922 C 228.726 123.529, 266 118.815, 266 113.508 C 266 112.501, 265.127 112.535, 261.840 113.667 C 252.680 116.823, 237.852 118.290, 214.500 118.350 C 190.496 118.412, 177.035 117.183, 166.750 113.993 C 162.320 112.619, 161 112.505, 161 113.496 M 155.588 130.863 C 152.886 136.255, 150.982 141.163, 151.357 141.769 C 152.499 143.616, 162.186 146.771, 173.309 148.917 C 189.161 151.976, 211.905 153.216, 229.392 151.974 C 237.470 151.400, 244.512 151.198, 245.040 151.525 C 245.568 151.851, 246 152.778, 246 153.584 C 246 156.758, 240.907 157.360, 214 157.364 C 185.110 157.369, 171.843 155.797, 156.895 150.598 L 149.989 148.197 150.245 235.309 L 150.500 322.420 153.913 324.720 C 158.125 327.559, 167.623 330.548, 179.489 332.770 C 186.493 334.081, 194.292 334.455, 214.500 334.445 C 237.680 334.434, 241.615 334.190, 250.779 332.192 C 263.252 329.472, 271.194 326.597, 274.799 323.497 L 277.500 321.174 277.766 234.474 C 278.020 151.925, 277.948 147.809, 276.266 148.515 C 264.184 153.584, 260.500 154.049, 260.500 150.501 C 260.500 148.939, 261.900 148.023, 266.908 146.308 C 277.264 142.761, 277.288 142.678, 271.472 130.993 C 267.804 123.622, 266.107 121.150, 265 121.567 C 264.175 121.878, 259.824 122.990, 255.331 124.038 C 239.115 127.822, 213.257 129.008, 191.500 126.966 C 182.142 126.088, 176.713 125.075, 162.500 121.555 C 160.815 121.138, 159.727 122.602, 155.588 130.863 M 165.312 337.287 C 171.995 342.960, 186.900 345.500, 213.500 345.500 C 240.104 345.500, 255.802 342.849, 261.790 337.344 L 264.500 334.853 261.500 335.521 C 237.682 340.819, 215.879 342.238, 192.856 339.988 C 183.865 339.109, 170.935 337.018, 164.500 335.403 C 162.903 335.002, 163.066 335.382, 165.312 337.287" stroke="none" fill="currentColor" fill-rule="evenodd"/>
</svg>