<svg fill="currentColor" xmlns="http://www.w3.org/2000/svg" width="24" height="24" viewBox="0 0 400 400" version="1.1">
	<path d="M 141 80.326 L 135.500 81.500 135.213 90.695 C 134.880 101.383, 134.561 101.007, 145.568 102.901 L 152.635 104.116 151.313 110.549 C 149.808 117.865, 146.470 127.166, 142.626 134.752 C 139.478 140.964, 139.366 142.590, 141.991 143.995 C 143.481 144.793, 144.708 144.685, 146.870 143.567 C 152.102 140.862, 160.460 132.343, 164.263 125.841 L 168.002 119.447 172.251 119.845 C 174.588 120.064, 176.795 120.709, 177.156 121.278 C 177.516 121.847, 176.279 123.758, 174.406 125.524 L 171 128.736 171 139.286 C 171 150.660, 171.445 153, 173.607 153 C 177.393 153, 172.434 160.461, 164.024 167.419 C 155.380 174.571, 148.816 183.513, 146.509 191.282 C 145.237 195.565, 145 205.771, 145 256.231 C 145 321.668, 144.728 318.557, 150.975 324.500 L 154.129 327.500 192.213 327.785 L 230.296 328.070 233.992 325.624 C 241.363 320.746, 241.107 323.434, 240.786 254.273 L 240.500 192.500 237.816 186.774 C 234.248 179.161, 230.186 174.270, 221.184 166.749 C 216.864 163.139, 213.108 159.080, 212.292 157.137 C 210.980 154.016, 211.027 153.669, 212.939 152.330 C 214.796 151.030, 215 149.855, 215 140.490 C 215 129.199, 214.049 125.799, 210.428 124.149 C 208.305 123.182, 208.181 122.778, 209.155 119.986 C 210.674 115.628, 214.039 113.805, 222.839 112.572 C 229.787 111.598, 230.607 111.241, 231.842 108.656 C 233.022 106.183, 232.968 105.203, 231.426 101.166 C 228.953 94.693, 220.622 86.663, 212.274 82.709 L 205.500 79.500 176 79.326 C 156.552 79.211, 144.626 79.551, 141 80.326 M 154.483 84.851 C 154.217 85.116, 154 88.163, 154 91.621 L 154 97.909 157.750 98.597 C 164.550 99.843, 171.395 103.587, 176.037 108.600 C 180.098 112.986, 181.491 115.386, 183.375 121.250 C 183.858 122.753, 185.266 123, 193.341 123 L 202.744 123 203.351 119.208 C 204.388 112.721, 212.492 107.018, 220.718 106.985 C 222.798 106.976, 225.105 106.586, 225.844 106.117 C 229.344 103.900, 219.114 92.708, 209.019 87.709 L 202.537 84.500 178.751 84.434 C 165.669 84.398, 154.748 84.585, 154.483 84.851 M 142.750 85.716 C 140.189 86.104, 140 86.463, 140 90.941 C 140 95.527, 140.145 95.779, 143.125 96.375 C 148.917 97.533, 149 97.457, 149 91 C 149 84.527, 149.243 84.733, 142.750 85.716 M 155.839 115.941 C 154.376 121.988, 152.462 128.373, 151.585 130.130 C 150.708 131.887, 150.179 133.513, 150.409 133.742 C 151.131 134.464, 159.043 123.849, 161.719 118.568 C 166.633 108.870, 166.524 106.899, 160.994 105.554 C 158.559 104.961, 158.438 105.205, 155.839 115.941 M 177.692 129.642 C 177.311 130.022, 177 134.083, 177 138.667 L 177 147 193.039 147 L 209.078 147 208.789 138.250 L 208.500 129.500 193.442 129.225 C 185.160 129.074, 178.072 129.261, 177.692 129.642 M 179.938 157.250 C 179.008 160.717, 176.706 163.526, 167.439 172.500 C 156.330 183.256, 153.635 187.137, 151.639 195.250 L 150.962 198 172.886 198 L 194.810 198 194.426 194.250 C 194.215 192.188, 193.560 183.750, 192.971 175.500 C 192.382 167.250, 191.640 158.813, 191.322 156.750 C 190.746 153.014, 190.727 153, 185.911 153 L 181.077 153 179.938 157.250 M 197.012 153.750 C 197.019 154.162, 197.685 161.250, 198.492 169.500 C 199.299 177.750, 199.968 187.537, 199.979 191.250 L 200 198 217.500 198 C 228.045 198, 235 197.617, 235 197.038 C 235 196.508, 234.045 193.471, 232.877 190.288 C 231.058 185.328, 229.069 182.851, 218.975 172.969 C 209.419 163.616, 206.981 160.642, 206.059 157.219 C 204.966 153.161, 204.771 153, 200.961 153 C 198.783 153, 197.006 153.338, 197.012 153.750 M 151 260.077 L 151 316.154 153.923 319.077 L 156.846 322 193 322 L 229.154 322 232.077 319.077 L 235 316.154 235 260.077 L 235 204 218 204 L 201 204 200.996 211.750 C 200.989 224.879, 199.005 246.998, 196.892 257.500 C 194.049 271.631, 189.893 283.605, 182.955 297.652 C 176.950 309.810, 174.811 312.240, 172.311 309.740 C 171.199 308.628, 172.055 306.249, 177.450 295.453 C 188.891 272.561, 193.532 252.569, 194.679 221.250 L 195.311 204 173.155 204 L 151 204 151 260.077" stroke="none" fill="currentColor" fill-rule="evenodd"/>
</svg>