<svg fill="currentColor" xmlns="http://www.w3.org/2000/svg" width="24" height="24" viewBox="0 0 256 256" version="1.1">
	<path d="M 95 50.501 C 94.175 50.702, 91.792 51.146, 89.704 51.487 L 85.907 52.108 86.204 58.304 L 86.500 64.500 91.806 65.442 L 97.111 66.383 96.468 70.442 C 96.114 72.674, 94.302 78.070, 92.443 82.434 C 89.957 88.265, 89.345 90.710, 90.131 91.658 C 91.002 92.707, 91.709 92.685, 93.926 91.538 C 97.225 89.832, 103.295 83.264, 105.484 79.031 C 106.710 76.659, 107.643 76.018, 109.503 76.267 C 113.131 76.753, 113.594 77.798, 111.177 80.050 C 109.320 81.780, 109 83.165, 109 89.480 C 109 93.551, 109.450 97.160, 110 97.500 C 112.145 98.826, 110.706 101.165, 103.087 108.732 C 91.599 120.144, 91.863 118.750, 92.215 165.958 L 92.500 204.166 95.766 207.083 L 99.032 210 122.469 210 C 137.865 210, 146.763 209.609, 148.405 208.861 C 153.750 206.426, 154 204.433, 154 164.280 C 154 118.631, 154.244 119.856, 142.914 108.726 C 135.320 101.266, 133.828 98.843, 136 97.500 C 136.550 97.160, 137 93.529, 137 89.431 C 137 83.218, 136.668 81.696, 135 80.268 C 133.900 79.326, 133 78.013, 133 77.350 C 133 75.095, 138.168 72, 141.935 72 C 149.322 72, 150.235 66.380, 143.954 59.566 C 136.710 51.708, 133.110 50.619, 113.500 50.360 C 104.150 50.237, 95.825 50.300, 95 50.501 M 91.192 54.776 C 89.264 55.092, 88.935 55.675, 89.192 58.327 C 89.447 60.953, 89.974 61.555, 92.250 61.816 C 94.787 62.108, 95 61.862, 95 58.625 C 95 54.712, 94.523 54.230, 91.192 54.776 M 98 58.208 C 98 62.549, 98.037 62.595, 102.490 63.786 C 107.976 65.253, 114.490 70.923, 116.022 75.566 C 117.137 78.946, 117.245 79, 122.877 79 C 128.508 79, 128.618 78.945, 129.864 75.501 C 131.300 71.529, 133.444 70.097, 140.298 68.534 L 145.097 67.440 142.773 63.991 C 141.494 62.094, 138.435 59.183, 135.974 57.521 C 131.502 54.501, 131.494 54.500, 114.750 54.166 L 98 53.831 98 58.208 M 100.432 69.750 C 99.732 72.925, 97.156 81.795, 96.294 84 C 94.726 88.012, 100.315 81.058, 103.037 75.610 C 105.867 69.946, 105.957 69.442, 104.347 68.264 C 101.817 66.415, 101.108 66.684, 100.432 69.750 M 113.412 82.917 C 113.186 83.146, 113 85.733, 113 88.667 L 113 94 123 94 L 133 94 133 88.569 L 133 83.137 123.412 82.819 C 118.139 82.643, 113.639 82.688, 113.412 82.917 M 114.186 101.363 C 113.489 103.288, 110.399 106.962, 106.958 109.955 C 101.376 114.810, 98.266 119.236, 96.561 124.750 L 95.865 127 110.070 127 L 124.275 127 123.612 118.250 C 122.054 97.702, 122.129 98, 118.572 98 C 115.881 98, 115.218 98.509, 114.186 101.363 M 126.408 107.750 C 126.763 113.112, 127.309 119.638, 127.621 122.250 L 128.188 127 139.094 127 C 145.776 127, 150 126.609, 150 125.989 C 150 122.644, 144.987 115.235, 139.364 110.267 C 135.747 107.072, 132.483 103.212, 131.800 101.323 C 130.890 98.806, 130.011 98, 128.180 98 L 125.762 98 126.408 107.750 M 96.667 130.667 C 96.300 131.033, 96 147.133, 96 166.444 C 96 196.604, 96.220 201.868, 97.557 203.777 C 99.091 205.968, 99.453 206, 122.902 206 C 144.677 206, 146.830 205.845, 148.345 204.171 C 149.821 202.541, 150 198.426, 150 166.171 L 150 130 139.154 130 L 128.308 130 127.708 143.281 C 126.840 162.490, 124.197 174.214, 117.514 188.500 C 113.333 197.439, 111.501 199.861, 110.023 198.406 C 109.210 197.606, 110.144 194.867, 113.498 188.218 C 120.164 174.999, 123.028 162.824, 123.723 144.750 L 124.291 130 110.812 130 C 103.399 130, 97.033 130.300, 96.667 130.667" stroke="none" fill="currentColor" fill-rule="evenodd"/>
</svg>