<svg fill="currentColor" xmlns="http://www.w3.org/2000/svg" width="24" height="24" viewBox="0 0 256 256" version="1.1">
	<path d="M 117 46.671 C 112.632 47.369, 106.194 50.051, 105.681 51.388 C 105.409 52.098, 105.939 56.688, 106.859 61.589 L 108.531 70.500 105.515 72.534 C 102.833 74.344, 102.467 75.199, 102.200 80.286 C 101.936 85.317, 102.203 86.283, 104.419 88.338 L 106.939 90.673 107.219 150.086 C 107.498 209.175, 107.512 209.523, 109.706 213.624 C 117.133 227.509, 135.508 228.803, 144.500 216.075 L 147.500 211.829 147.772 151.015 L 148.045 90.201 150.522 88.577 C 152.740 87.124, 153 86.270, 153 80.430 C 153 74.210, 152.859 73.828, 149.970 72.203 C 147.798 70.982, 147.065 69.934, 147.380 68.500 C 149.790 57.528, 150.275 51.847, 148.918 50.501 C 145.517 47.125, 127.614 44.977, 117 46.671 M 113.250 51.063 C 111.463 51.610, 110 52.443, 110 52.915 C 110 55.923, 136.248 56.777, 143.500 54.006 C 146.350 52.917, 146.400 52.802, 144.500 51.718 C 141.932 50.252, 117.568 49.742, 113.250 51.063 M 110.096 59.355 C 110.148 60.535, 110.936 64.856, 111.846 68.959 L 113.500 76.418 117.500 77.289 C 121.784 78.222, 140.603 77.731, 141.675 76.658 C 142.309 76.025, 146.074 57.741, 145.657 57.324 C 145.540 57.206, 143.656 57.525, 141.472 58.031 C 136.442 59.198, 118.694 59.230, 113.750 58.081 C 110.298 57.280, 110.008 57.381, 110.096 59.355 M 106 81.987 C 106 84.529, 106.523 85.987, 107.582 86.393 C 110.158 87.381, 111.965 87.089, 111.552 85.750 C 111.340 85.063, 110.909 83.316, 110.594 81.869 C 110.270 80.380, 109.150 79.011, 108.011 78.713 C 106.257 78.254, 106 78.673, 106 81.987 M 147.392 78.979 C 146.113 79.495, 145.029 81.107, 144.635 83.075 C 143.830 87.099, 144.320 87.631, 147.496 86.184 C 149.478 85.281, 150 84.309, 150 81.521 C 150 79.585, 149.887 78.029, 149.750 78.063 C 149.613 78.098, 148.551 78.510, 147.392 78.979 M 114.512 83.933 C 114.879 85.895, 115.344 87.668, 115.546 87.873 C 116.438 88.780, 133.839 89.129, 136.970 88.303 C 139.771 87.565, 140.566 86.778, 141.087 84.228 C 141.443 82.489, 141.573 80.907, 141.378 80.711 C 141.182 80.515, 138.136 80.702, 134.609 81.127 C 131.081 81.552, 124.967 81.554, 121.021 81.132 L 113.846 80.366 114.512 83.933 M 111 108.049 L 111 125.217 113.750 124.358 C 117.267 123.261, 137.480 123.240, 141.750 124.329 L 145 125.159 145 108.079 C 145 91.151, 144.021 86.597, 142.349 95.749 C 141.548 100.133, 141.175 100.600, 137.491 101.834 C 132.572 103.482, 117.859 102.958, 115.564 101.053 C 114.694 100.331, 113.702 97.989, 113.360 95.848 C 111.946 87.008, 111 91.900, 111 108.049 M 116.462 94.750 C 116.836 96.263, 117.566 97.934, 118.085 98.464 C 118.604 98.995, 123.098 99.429, 128.073 99.429 C 137.700 99.429, 138.953 98.834, 138.985 94.250 C 139 92.045, 138.768 92, 127.392 92 L 115.783 92 116.462 94.750 M 118.269 126.874 C 113.744 127.682, 112.230 128.563, 113.383 129.717 C 114.404 130.737, 133.103 131.362, 138.485 130.554 C 143.385 129.820, 144.314 128.605, 140.750 127.596 C 136.982 126.529, 122.762 126.073, 118.269 126.874 M 111 170.423 C 111 194.520, 111.380 208.873, 112.067 210.685 C 116.924 223.506, 134.860 225.003, 142.200 213.200 C 144.481 209.531, 144.502 209.178, 144.794 171.263 L 145.089 133.026 140.294 133.763 C 134.065 134.721, 120.657 134.707, 115.250 133.738 L 111 132.976 111 170.423" stroke="none" fill="currentColor" fill-rule="evenodd"/>
</svg>