<svg fill="currentColor" xmlns="http://www.w3.org/2000/svg" width="24" height="24" viewBox="0 0 400 400" version="1.1">
	<path d="M 181.450 73.397 C 173.726 74.870, 169.471 76.717, 166.670 79.812 C 164.899 81.769, 164.931 82.260, 167.783 96.415 C 169.748 106.172, 170.347 111, 169.592 111 C 168.972 111, 166.785 112.141, 164.732 113.536 L 161 116.072 161 125.582 C 161 134.345, 161.193 135.284, 163.455 137.545 C 164.805 138.895, 166.368 140, 166.930 140 C 167.614 140, 168.041 170.522, 168.225 232.750 C 168.500 325.386, 168.503 325.507, 170.675 330.805 C 173.984 338.878, 179.080 344.422, 186.586 348.117 C 202.979 356.187, 221.957 349.257, 229.685 332.378 L 232.072 327.164 232.136 234.121 L 232.201 141.079 235.568 139.092 C 239.667 136.674, 240.173 134.872, 239.795 124.036 C 239.505 115.706, 239.448 115.537, 236.202 113.353 C 234.388 112.133, 232.371 110.957, 231.719 110.740 C 230.842 110.447, 231.119 107.120, 232.785 97.922 C 234.024 91.090, 235.029 84.332, 235.018 82.905 C 234.993 79.349, 232.296 77.205, 224.834 74.808 C 216.632 72.174, 192.055 71.375, 181.450 73.397 M 189.021 78.088 C 184.907 78.585, 179.057 79.730, 176.021 80.633 L 170.500 82.274 173.500 83.566 C 179.556 86.173, 190.183 87.243, 204.919 86.730 C 218.948 86.241, 228.500 84.509, 228.500 82.456 C 228.500 79.387, 202.286 76.487, 189.021 78.088 M 172.009 89.384 C 172.156 91.365, 177.899 119.232, 178.227 119.561 C 178.489 119.822, 182.707 120.533, 187.601 121.140 C 196.011 122.183, 212.721 121.806, 219.668 120.416 L 222.834 119.783 225.755 104.642 C 227.362 96.314, 228.636 89.424, 228.587 89.332 C 228.538 89.240, 226.023 89.862, 222.999 90.715 C 215.271 92.894, 186.863 92.962, 178.250 90.821 C 174.813 89.967, 172.004 89.320, 172.009 89.384 M 166 127.471 C 166 133.304, 166.960 134.642, 171.845 135.619 C 175.415 136.333, 175.454 136.214, 173.950 129.202 C 173.013 124.835, 172.526 124.190, 169.450 123.246 L 166 122.187 166 127.471 M 231.293 123.340 C 228.412 124.171, 227.972 124.817, 226.956 129.712 C 225.686 135.828, 225.934 136.484, 229.203 135.664 C 233.997 134.460, 235.141 132.780, 234.810 127.427 L 234.500 122.415 231.293 123.340 M 179.570 130.500 C 180.730 137.507, 180.996 137.687, 191.351 138.463 C 196.527 138.851, 204.900 138.845, 209.957 138.449 C 220.032 137.661, 219.950 137.722, 221.358 130 L 221.997 126.500 200.453 126.500 L 178.909 126.500 179.570 130.500 M 174 168.740 L 174 195.646 181.250 193.754 C 187.264 192.185, 190.972 191.939, 203 192.311 C 212.043 192.591, 219.288 193.333, 222.250 194.282 L 227 195.804 227 168.819 C 227 148.023, 226.720 141.927, 225.779 142.240 C 224.625 142.625, 224.144 144.276, 222.554 153.326 C 221.640 158.519, 217.695 160.099, 204 160.752 C 192.055 161.322, 183.111 159.885, 180.476 156.974 C 179.515 155.911, 178.227 152.257, 177.614 148.853 C 177.001 145.449, 175.938 142.477, 175.250 142.249 C 174.271 141.923, 174 147.660, 174 168.740 M 182 143.701 C 182 143.811, 182.480 146.139, 183.066 148.874 C 184.241 154.351, 183.249 153.840, 196.041 155.555 C 199.972 156.083, 215.725 154.608, 216.713 153.620 C 216.905 153.428, 217.322 151.073, 217.640 148.386 L 218.218 143.500 200.109 143.500 C 190.148 143.500, 181.999 143.590, 182 143.701 M 187.858 198.042 C 179.235 199.243, 175.028 200.781, 177.012 202.007 C 182.494 205.395, 214.627 205.954, 222 202.790 L 225.500 201.287 220 199.621 C 213.299 197.591, 196.883 196.784, 187.858 198.042 M 174 264.712 C 174 328.424, 174.049 329.001, 180.045 336.251 C 184.559 341.709, 190.924 345.092, 197.861 345.721 C 208.925 346.724, 218.018 341.814, 223.534 331.856 L 226.500 326.500 226.780 266.631 C 227.048 209.556, 226.978 206.797, 225.280 207.497 C 215.369 211.585, 186.263 211.492, 175.437 207.338 C 174.198 206.862, 174 214.753, 174 264.712" stroke="none" fill="currentColor" fill-rule="evenodd"/>
</svg>