<?xml version="1.0" encoding="iso-8859-1"?>
<!-- Generator: Adobe Illustrator 30.1.0, SVG Export Plug-In . SVG Version: 9.03 Build 0)  -->
<svg version="1.1" id="Layer_1" xmlns="http://www.w3.org/2000/svg" xmlns:xlink="http://www.w3.org/1999/xlink" x="0px" y="0px"
	 viewBox="0 0 263.245 39.611" enable-background="new 0 0 263.245 39.611" xml:space="preserve">
<g>
	<g>
		<path fill="#45525C" d="M154.433,1.543v35.379c0.008,0.003,0.012,1.542,1.55,1.542h4.231c1.541-0.002,1.536-1.538,1.536-1.538
			V1.542c0.002-0.003,0-1.542-1.539-1.542h-4.23C154.439,0.002,154.439,1.539,154.433,1.543z"/>
		<path fill="#45525C" d="M173.168,27.491c3.483-1.834,12.074-1.653,12.865-1.548c0.402,0.053,0.98,0.344,0.977,0.903
			c-0.03,7.409-10.176,8.409-14.059,5.857c-0.815-0.536-1.334-1.496-1.357-2.343C171.559,29.108,172.001,28.106,173.168,27.491z
			 M168.644,37.46c4.772,3.383,13.632,2.559,17.672-0.958c0.491-0.426,1.056-0.074,1.214,0.419c0.399,1.244,0.961,1.541,2.197,1.543
			c0.564,0,2.524,0,2.524,0c1.539,0,1.544-1.539,1.539-1.537V21.009c0.002-8.657-8.098-10.955-14.303-10.951
			c-6.939,0.004-11.477,2.633-13.69,7.975c-0.224,0.541,0.421,1.2,0.978,1.2h4.733c0.916,0,1.625-0.67,1.862-1.067
			c1.234-2.061,3.226-2.828,6.961-2.828c4.132,0,5.221,0.924,6.559,2.83c0.858,1.223-0.307,2.495-0.967,2.529
			c-9.949,0.507-11.639,0.876-14.348,1.306c-3.929,0.622-6.897,4.413-6.897,8.357C164.676,32.946,165.887,35.508,168.644,37.46z"/>
		<path fill="#45525C" d="M227.576,36.923V21.325c0-6.98-6.158-11.26-10.656-11.26c-4.471,0-8.266,1.163-11.197,3.523
			c-0.259,0.208-0.989,0.439-0.989-0.204v-1.601c0,0-0.003-1.54-1.541-1.538h-3.661c0,0-1.544,0-1.542,1.533v25.145
			c0.005,1.539,1.545,1.542,1.545,1.542l3.671,0c1.535-0.002,1.535-1.538,1.528-1.542V24.631c0.002-3.396,2.282-9.195,9.843-9.195
			c5.403,0,6.263,3.711,6.263,5.889v15.604c0.002,1.54,1.542,1.536,1.542,1.536h3.661C226.043,38.464,227.581,38.464,227.576,36.923
			z"/>
		<path fill="#45525C" d="M116.966,24.783c0-6.483,5.163-14.714,17.515-14.712c12.368,0.003,17.538,8.253,17.545,14.707
			c0.006,6.738-5.146,14.688-17.439,14.688C122.18,39.467,116.966,31.65,116.966,24.783z M144.886,24.788
			c0-4.07-3.466-9.413-10.401-9.413c-6.935,0-10.381,5.376-10.381,9.446c0,4.071,3.292,9.384,10.482,9.384
			C141.492,34.204,144.886,28.902,144.886,24.788z"/>
		<path fill="#45525C" d="M246.819,15.582c5.267,0,9.513,3.604,9.527,9.2c0.014,5.776-4.25,9.484-9.517,9.485
			c-5.267,0.001-9.284-4.119-9.287-9.561C237.539,19.334,241.907,15.582,246.819,15.582z M255.62,36.067
			c0.444-0.351,0.904-0.068,0.897,0.742c0,0.116,0.003,1.655,1.542,1.655h3.653c0,0,1.531,0,1.531-1.542V1.539
			c0-1.537-1.533-1.534-1.533-1.534h-3.646c0,0-1.542-0.005-1.553,1.54v11.173c-0.011,0.81-0.442,1.083-0.891,0.74
			c-9.933-7.587-25.028,0.004-25.002,11.24C230.648,37.263,245.536,44.033,255.62,36.067z"/>
		<path fill="#45525C" d="M87.423,22.699l-0.001,14.225c0,1.542-1.539,1.54-1.539,1.54h-3.449c0,0-1.545,0.013-1.553-1.541V1.538
			c0-1.532,1.538-1.532,1.538-1.532H104.8c5.056-0.002,10.832,3.486,10.832,10.578c0,3.466-1.984,6.641-4.77,8.589
			c-0.224,0.157-0.396,0.451-0.291,0.533c1.91,1.5,1.932,2.725,2.603,5.304c1.212,4.657,1.357,8.722,3.199,12.622
			c0.126,0.268-0.188,0.836-0.605,0.834h-4.464c-1.462,0-2.26-0.689-2.541-1.544c-1.599-4.872-0.497-9.6-3.828-14.22
			c-0.784-1.087-2.511-1.54-4.533-1.54H88.964C88.964,21.163,87.426,21.16,87.423,22.699z M102.616,16.063
			c0,0.002,6.011,0.012,6.008-5.477c-0.002-5.474-6.008-5.485-6.008-5.485H88.962c-1.538,0-1.538,1.538-1.538,1.538v7.884
			c0,1.539,1.623,1.538,1.538,1.54H102.616z"/>
	</g>
	<rect y="29.464" fill="#45525C" width="73.569" height="9"/>
	<rect y="0.006" fill="#187ABD" width="73.569" height="26.123"/>
</g>
</svg>
