<?xml version="1.0" encoding="iso-8859-1"?>
<!-- Generator: Adobe Illustrator 30.1.0, SVG Export Plug-In . SVG Version: 9.03 Build 0)  -->
<svg version="1.1" id="Layer_1" xmlns="http://www.w3.org/2000/svg" xmlns:xlink="http://www.w3.org/1999/xlink" x="0px" y="0px"
	 viewBox="0 0 330.021 49.659" enable-background="new 0 0 330.021 49.659" xml:space="preserve">
<g>
	<g>
		<path fill="#FFFFFF" d="M193.607,1.934v44.353c0.01,0.004,0.016,1.934,1.943,1.934h5.305c1.932-0.002,1.926-1.929,1.926-1.929
			V1.933c0.002-0.003,0-1.933-1.93-1.933h-5.303C193.615,0.002,193.615,1.93,193.607,1.934z"/>
		<path fill="#FFFFFF" d="M217.095,34.465c4.367-2.299,15.137-2.072,16.129-1.941c0.504,0.066,1.229,0.431,1.225,1.132
			c-0.037,9.288-12.758,10.542-17.625,7.343c-1.021-0.672-1.672-1.875-1.701-2.938C215.078,36.492,215.632,35.236,217.095,34.465z
			 M211.423,46.963c5.982,4.241,17.09,3.208,22.154-1.201c0.615-0.535,1.324-0.093,1.521,0.525c0.5,1.56,1.205,1.932,2.754,1.935
			c0.707,0,3.164,0,3.164,0c1.93,0,1.936-1.929,1.93-1.927V26.338c0.002-10.852-10.152-13.734-17.932-13.728
			c-8.699,0.005-14.389,3.301-17.162,9.998c-0.281,0.679,0.527,1.504,1.227,1.504h5.934c1.148,0,2.037-0.84,2.334-1.337
			c1.547-2.584,4.045-3.545,8.727-3.545c5.18,0,6.545,1.159,8.223,3.548c1.076,1.533-0.385,3.128-1.213,3.17
			c-12.473,0.635-14.592,1.098-17.988,1.637c-4.926,0.78-8.646,5.532-8.646,10.477C206.449,41.303,207.966,44.515,211.423,46.963z"
			/>
		<path fill="#FFFFFF" d="M285.304,46.289V26.734c0-8.751-7.721-14.116-13.359-14.116c-5.605,0-10.363,1.458-14.037,4.417
			c-0.324,0.261-1.24,0.55-1.24-0.256v-2.007c0,0-0.004-1.931-1.932-1.929h-4.59c0,0-1.936,0-1.934,1.922v31.523
			c0.006,1.929,1.938,1.933,1.938,1.933l4.602,0c1.924-0.002,1.924-1.929,1.916-1.933V30.879c0.002-4.257,2.861-11.528,12.34-11.528
			c6.773,0,7.852,4.653,7.852,7.382v19.562c0.002,1.931,1.934,1.925,1.934,1.925h4.59C283.382,48.221,285.31,48.221,285.304,46.289z
			"/>
		<path fill="#FFFFFF" d="M146.636,31.07c0-8.127,6.473-18.447,21.957-18.443c15.506,0.003,21.986,10.346,21.996,18.438
			c0.008,8.447-6.451,18.414-21.863,18.414C153.173,49.478,146.636,39.679,146.636,31.07z M181.638,31.076
			c0-5.102-4.346-11.801-13.039-11.801c-8.694,0-13.014,6.74-13.014,11.842c0,5.103,4.127,11.764,13.141,11.764
			C177.384,42.881,181.638,36.233,181.638,31.076z"/>
		<path fill="#FFFFFF" d="M309.429,19.534c6.604,0,11.926,4.518,11.943,11.533c0.018,7.242-5.328,11.89-11.932,11.891
			c-6.604,0.001-11.639-5.164-11.643-11.986C297.794,24.239,303.271,19.534,309.429,19.534z M320.462,45.216
			c0.557-0.44,1.133-0.085,1.125,0.93c0,0.146,0.004,2.074,1.934,2.074h4.58c0,0,1.92,0,1.92-1.933V1.93
			c0-1.927-1.922-1.923-1.922-1.923h-4.57c0,0-1.934-0.006-1.947,1.931v14.007c-0.014,1.016-0.555,1.358-1.117,0.927
			c-12.453-9.511-31.377,0.004-31.344,14.091C289.156,46.715,307.82,55.203,320.462,45.216z"/>
		<path fill="#FFFFFF" d="M109.6,28.457l-0.001,17.833c0,1.933-1.93,1.931-1.93,1.931h-4.324c0,0-1.938,0.016-1.947-1.932V1.928
			c0-1.921,1.928-1.921,1.928-1.921h28.06c6.339-0.002,13.579,4.37,13.579,13.261c0,4.346-2.487,8.325-5.98,10.768
			c-0.281,0.196-0.496,0.565-0.365,0.668c2.395,1.881,2.422,3.417,3.264,6.649c1.52,5.838,1.701,10.935,4.011,15.824
			c0.158,0.336-0.235,1.048-0.759,1.046h-5.597c-1.833,0-2.833-0.864-3.186-1.936c-2.005-6.107-0.623-12.035-4.799-17.827
			c-0.982-1.363-3.148-1.93-5.683-1.93h-14.34C111.531,26.532,109.604,26.528,109.6,28.457z M128.646,20.138
			c0,0.002,7.535,0.015,7.532-6.867c-0.003-6.863-7.532-6.877-7.532-6.877h-17.118c-1.929,0-1.929,1.929-1.929,1.929v9.883
			c0,1.929,2.034,1.928,1.929,1.931H128.646z"/>
	</g>
	<rect y="36.938" fill="#77787B" width="92.23" height="11.283"/>
	<rect y="0.007" fill="#187ABD" width="92.23" height="32.749"/>
</g>
</svg>
